<svg id="Layer_1" data-name="Layer 1" xmlns="http://www.w3.org/2000/svg" viewBox="0 0 500 300"><defs><style>.cls-1{fill:none}.cls-2{fill:#0066f4}.cls-3{fill:#0029ea}.cls-6{fill:#0066f5}.cls-9{fill:#bce5f7}</style><clipPath id="clip-path"><path class="cls-1" d="M0 0h500v300H0z"/></clipPath><pattern id="Unnamed_Pattern" data-name="Unnamed Pattern" width="36.88" height="21.29" patternTransform="rotate(180 -4253.36 9834.12) scale(1.01)" patternUnits="userSpaceOnUse"><path class="cls-1" d="M0 0h36.88v21.29H0z"/><path class="cls-2" d="M.75 21.29L36.88.43v1.5L3.35 21.29H.75zM4.85 21.29L36.88 2.8v1.5L7.44 21.29H4.85zM13.04 21.29L36.88 7.53v1.5L15.64 21.29h-2.6zM0 19.36L33.53 0h2.6L0 20.86v-1.5zM0 16.99L29.43 0h2.6L0 18.49v-1.5zM8.94 21.29L36.88 5.17v1.49L11.54 21.29h-2.6zM0 12.26L21.24 0h2.59L0 13.76v-1.5zM0 14.63L25.33 0h2.6L0 16.13v-1.5zM0 .43L.75 0h2.6L0 1.93V.43zM0 7.53L13.04 0h2.6L0 9.03v-1.5zM0 5.16L8.94 0h2.6L0 6.66v-1.5zM0 9.9L17.14 0h2.6L0 11.4V9.9zM17.14 21.29L36.88 9.9v1.5l-17.14 9.89h-2.6zM0 2.8L4.85 0h2.6L0 4.3V2.8zM25.33 21.29l11.55-6.66v1.5l-8.95 5.16h-2.6zM21.24 21.29l15.64-9.03v1.5l-13.05 7.53h-2.59zM29.43 21.29l7.45-4.3v1.5l-4.85 2.8h-2.6zM36.13 21.29h-2.6l3.35-1.93v1.5l-.75.43z"/><path class="cls-3" d="M36.88 21.29h-.75l.75-.43v.43zM32.03 21.29l4.85-2.8v.87l-3.35 1.93h-1.5zM27.93 21.29l8.95-5.16v.86l-7.45 4.3h-1.5zM23.83 21.29l13.05-7.53v.87l-11.55 6.66h-1.5zM19.74 21.29l17.14-9.89v.86l-15.64 9.03h-1.5zM15.64 21.29L36.88 9.03v.87L17.14 21.29h-1.5zM11.54 21.29L36.88 6.66v.87L13.04 21.29h-1.5zM7.44 21.29L36.88 4.3v.87L8.94 21.29h-1.5zM3.35 21.29L36.88 1.93v.87L4.85 21.29h-1.5zM0 21.29v-.43L36.13 0h.75v.43L.75 21.29H0zM0 18.49L32.03 0h1.5L0 19.36v-.87zM0 16.13L27.93 0h1.5L0 16.99v-.86zM0 13.76L23.83 0h1.5L0 14.63v-.87zM0 11.39L19.74 0h1.5L0 12.26v-.87zM0 9.03L15.64 0h1.5L0 9.89v-.86zM0 6.66L11.54 0h1.5L0 7.53v-.87zM0 4.3L7.45 0h1.49L0 5.16V4.3zM0 1.93L3.35 0h1.5L0 2.8v-.87zM0 0h.75L0 .43V0z"/></pattern><clipPath id="clip-path-2"><path id="SVGID" class="cls-1" d="M757.61 35.63c-.16-2.12-.39-4.25-.59-6.38-.5-5.19-1.12-10.4-1.9-15.65-.32-2.22-.63-4.42-1-6.64-1.12-6.43-2.31-12.87-3.78-19.35-.18-.78-.3-1.57-.5-2.36-1.69-7.26-3.65-14.52-5.8-21.77-.62-2.09-1.3-4.16-1.95-6.24q-2.52-8-5.37-16c-.82-2.29-1.64-4.56-2.5-6.85q-3.37-8.94-7.18-17.8c-.54-1.29-1-2.57-1.6-3.85-.14-.34-.26-.67-.41-1-2.92-6.61-6.06-13.14-9.31-19.65-.84-1.69-1.72-3.38-2.6-5.07q-4.56-8.88-9.5-17.57c-.63-1.09-1.21-2.2-1.83-3.28-3.84-6.62-7.87-13.12-12-19.53-1-1.57-2.06-3.11-3.09-4.66q-5.45-8.22-11.21-16.15c-.81-1.12-1.59-2.26-2.41-3.37q-6.77-9.1-13.93-17.8c-1.15-1.38-2.31-2.74-3.47-4.11-1.82-2.14-3.59-4.35-5.42-6.44q-4.32-4.89-8.76-9.62c-.23-.24-.44-.49-.66-.73-5.22-5.55-10.57-10.84-16-16-.83-.79-1.67-1.6-2.51-2.38q-7.89-7.35-16.07-14.06c-1-.82-2-1.63-3-2.44q-8.24-6.64-16.73-12.62c-.83-.57-1.66-1.12-2.51-1.69-6-4.08-12-8-18.12-11.51l-108.37-62.54-184.25 107.07 108.31 62.53c6.12 3.53 12.15 7.42 18.12 11.51.83.58 1.68 1.12 2.51 1.71 5.65 4 11.24 8.18 16.73 12.6 1 .81 2 1.63 3 2.45q8.16 6.72 16.07 14.05c.85.78 1.68 1.6 2.51 2.38 5.44 5.16 10.8 10.46 16 16 .24.24.45.5.69.75 4.84 5.18 9.56 10.57 14.18 16.06 1.15 1.35 2.3 2.69 3.43 4.07 4.77 5.8 9.44 11.75 13.95 17.83.82 1.09 1.59 2.22 2.39 3.33 3.85 5.29 7.6 10.7 11.24 16.18 1 1.54 2.06 3.08 3.06 4.64 4.16 6.43 8.19 12.93 12 19.56.61 1.07 1.19 2.14 1.8 3.21q5 8.71 9.54 17.64c.88 1.68 1.75 3.36 2.58 5.05 3.42 6.84 6.69 13.72 9.73 20.66.56 1.26 1 2.53 1.58 3.77q3.81 8.91 7.21 17.9c.85 2.26 1.67 4.53 2.48 6.8q2.87 8 5.38 16c.66 2.07 1.34 4.14 1.95 6.22 2.15 7.26 4.12 14.53 5.81 21.79.18.77.3 1.52.49 2.29 1.45 6.49 2.7 13 3.79 19.41.36 2.21.68 4.41 1 6.63.77 5.25 1.39 10.46 1.89 15.66.21 2.12.43 4.26.59 6.37.52 7.08.87 14.11.84 21-.08 30.45-5.5 56.39-15.24 77.25s-23.79 36.6-41.13 46.68L702.07 180.6c34.69-20.16 56.21-63 56.38-123.93 0-6.93-.32-14-.84-21"/></clipPath><clipPath id="clip-path-3"><path id="SVGID-2" data-name="SVGID" class="cls-1" d="M499.74-5.65h52.53v30.33h-52.53z"/></clipPath><clipPath id="clip-path-4"><path id="SVGID-3" data-name="SVGID" class="cls-1" d="M499.74 24.68h52.53v30.33h-52.53z"/></clipPath><clipPath id="clip-path-5"><path id="SVGID-4" data-name="SVGID" class="cls-1" d="M499.74 55h52.53v30.33h-52.53z"/></clipPath><clipPath id="clip-path-6"><path id="SVGID-5" data-name="SVGID" class="cls-1" d="M499.74 85.33h52.53v30.33h-52.53z"/></clipPath><clipPath id="clip-path-7"><path id="SVGID-6" data-name="SVGID" class="cls-1" d="M499.74 115.65h52.53v30.33h-52.53z"/></clipPath><clipPath id="clip-path-8"><path id="SVGID-7" data-name="SVGID" class="cls-1" d="M499.74 145.98h52.53v30.33h-52.53z"/></clipPath><clipPath id="clip-path-9"><path id="SVGID-8" data-name="SVGID" class="cls-1" d="M499.74 176.31h52.53v30.33h-52.53z"/></clipPath><clipPath id="clip-path-10"><path id="SVGID-9" data-name="SVGID" class="cls-1" d="M499.74 206.63h52.53v30.33h-52.53z"/></clipPath><clipPath id="clip-path-11"><path id="SVGID-10" data-name="SVGID" class="cls-1" d="M499.74 236.96h52.53v30.33h-52.53z"/></clipPath><clipPath id="clip-path-12"><path id="SVGID-11" data-name="SVGID" class="cls-1" d="M499.74 267.28h52.53v30.33h-52.53z"/></clipPath><clipPath id="clip-path-13"><path id="SVGID-12" data-name="SVGID" class="cls-1" d="M447.22-5.65h52.53v30.33h-52.53z"/></clipPath><clipPath id="clip-path-14"><path id="SVGID-13" data-name="SVGID" class="cls-1" d="M447.22 24.68h52.53v30.33h-52.53z"/></clipPath><clipPath id="clip-path-15"><path id="SVGID-14" data-name="SVGID" class="cls-1" d="M447.22 55h52.53v30.33h-52.53z"/></clipPath><clipPath id="clip-path-16"><path id="SVGID-15" data-name="SVGID" class="cls-1" d="M447.22 85.33h52.53v30.33h-52.53z"/></clipPath><clipPath id="clip-path-17"><path id="SVGID-16" data-name="SVGID" class="cls-1" d="M447.22 115.65h52.53v30.33h-52.53z"/></clipPath><clipPath id="clip-path-18"><path id="SVGID-17" data-name="SVGID" class="cls-1" d="M447.22 145.98h52.53v30.33h-52.53z"/></clipPath><clipPath id="clip-path-19"><path id="SVGID-18" data-name="SVGID" class="cls-1" d="M447.22 176.31h52.53v30.33h-52.53z"/></clipPath><clipPath id="clip-path-20"><path id="SVGID-19" data-name="SVGID" class="cls-1" d="M447.22 206.63h52.53v30.33h-52.53z"/></clipPath><clipPath id="clip-path-21"><path id="SVGID-20" data-name="SVGID" class="cls-1" d="M447.22 236.96h52.53v30.33h-52.53z"/></clipPath><clipPath id="clip-path-22"><path id="SVGID-21" data-name="SVGID" class="cls-1" d="M447.22 267.28h52.53v30.33h-52.53z"/></clipPath><clipPath id="clip-path-23"><path id="SVGID-22" data-name="SVGID" class="cls-1" d="M394.69-5.65h52.53v30.33h-52.53z"/></clipPath><clipPath id="clip-path-24"><path id="SVGID-23" data-name="SVGID" class="cls-1" d="M394.69 24.68h52.53v30.33h-52.53z"/></clipPath><clipPath id="clip-path-25"><path id="SVGID-24" data-name="SVGID" class="cls-1" d="M394.69 55h52.53v30.33h-52.53z"/></clipPath><clipPath id="clip-path-26"><path id="SVGID-25" data-name="SVGID" class="cls-1" d="M394.69 85.33h52.53v30.33h-52.53z"/></clipPath><clipPath id="clip-path-27"><path id="SVGID-26" data-name="SVGID" class="cls-1" d="M394.69 115.65h52.53v30.33h-52.53z"/></clipPath><clipPath id="clip-path-28"><path id="SVGID-27" data-name="SVGID" class="cls-1" d="M394.69 145.98h52.53v30.33h-52.53z"/></clipPath><clipPath id="clip-path-29"><path id="SVGID-28" data-name="SVGID" class="cls-1" d="M394.69 176.31h52.53v30.33h-52.53z"/></clipPath><clipPath id="clip-path-30"><path id="SVGID-29" data-name="SVGID" class="cls-1" d="M394.69 206.63h52.53v30.33h-52.53z"/></clipPath><clipPath id="clip-path-31"><path id="SVGID-30" data-name="SVGID" class="cls-1" d="M394.69 236.96h52.53v30.33h-52.53z"/></clipPath><clipPath id="clip-path-32"><path id="SVGID-31" data-name="SVGID" class="cls-1" d="M394.69 267.28h52.53v30.33h-52.53z"/></clipPath><clipPath id="clip-path-33"><path id="SVGID-32" data-name="SVGID" class="cls-1" d="M342.16-5.65h52.53v30.33h-52.53z"/></clipPath><clipPath id="clip-path-34"><path id="SVGID-33" data-name="SVGID" class="cls-1" d="M342.16 24.68h52.53v30.33h-52.53z"/></clipPath><clipPath id="clip-path-35"><path id="SVGID-34" data-name="SVGID" class="cls-1" d="M342.16 55h52.53v30.33h-52.53z"/></clipPath><clipPath id="clip-path-36"><path id="SVGID-35" data-name="SVGID" class="cls-1" d="M342.16 85.33h52.53v30.33h-52.53z"/></clipPath><clipPath id="clip-path-37"><path id="SVGID-36" data-name="SVGID" class="cls-1" d="M342.16 115.65h52.53v30.33h-52.53z"/></clipPath><clipPath id="clip-path-38"><path id="SVGID-37" data-name="SVGID" class="cls-1" d="M342.16 145.98h52.53v30.33h-52.53z"/></clipPath><clipPath id="clip-path-39"><path id="SVGID-38" data-name="SVGID" class="cls-1" d="M342.16 176.31h52.53v30.33h-52.53z"/></clipPath><clipPath id="clip-path-40"><path id="SVGID-39" data-name="SVGID" class="cls-1" d="M342.16 206.63h52.53v30.33h-52.53z"/></clipPath><clipPath id="clip-path-41"><path id="SVGID-40" data-name="SVGID" class="cls-1" d="M342.16 236.96h52.53v30.33h-52.53z"/></clipPath><clipPath id="clip-path-42"><path id="SVGID-41" data-name="SVGID" class="cls-1" d="M342.16 267.28h52.53v30.33h-52.53z"/></clipPath><clipPath id="clip-path-43"><path id="SVGID-42" data-name="SVGID" class="cls-1" d="M289.64-5.65h52.53v30.33h-52.53z"/></clipPath><clipPath id="clip-path-44"><path id="SVGID-43" data-name="SVGID" class="cls-1" d="M289.64 24.68h52.53v30.33h-52.53z"/></clipPath><clipPath id="clip-path-45"><path id="SVGID-44" data-name="SVGID" class="cls-1" d="M289.64 55h52.53v30.33h-52.53z"/></clipPath><clipPath id="clip-path-46"><path id="SVGID-45" data-name="SVGID" class="cls-1" d="M289.64 85.33h52.53v30.33h-52.53z"/></clipPath><clipPath id="clip-path-47"><path id="SVGID-46" data-name="SVGID" class="cls-1" d="M289.64 115.65h52.53v30.33h-52.53z"/></clipPath><clipPath id="clip-path-48"><path id="SVGID-47" data-name="SVGID" class="cls-1" d="M289.64 145.98h52.53v30.33h-52.53z"/></clipPath><clipPath id="clip-path-49"><path id="SVGID-48" data-name="SVGID" class="cls-1" d="M289.64 176.31h52.53v30.33h-52.53z"/></clipPath><clipPath id="clip-path-50"><path id="SVGID-49" data-name="SVGID" class="cls-1" d="M289.64 206.63h52.53v30.33h-52.53z"/></clipPath><clipPath id="clip-path-51"><path id="SVGID-50" data-name="SVGID" class="cls-1" d="M289.64 236.96h52.53v30.33h-52.53z"/></clipPath><clipPath id="clip-path-52"><path id="SVGID-51" data-name="SVGID" class="cls-1" d="M289.64 267.28h52.53v30.33h-52.53z"/></clipPath><clipPath id="clip-path-53"><path id="SVGID-52" data-name="SVGID" class="cls-1" d="M237.11-5.65h52.53v30.33h-52.53z"/></clipPath><clipPath id="clip-path-54"><path id="SVGID-53" data-name="SVGID" class="cls-1" d="M237.11 24.68h52.53v30.33h-52.53z"/></clipPath><clipPath id="clip-path-55"><path id="SVGID-54" data-name="SVGID" class="cls-1" d="M237.11 55h52.53v30.33h-52.53z"/></clipPath><clipPath id="clip-path-56"><path id="SVGID-55" data-name="SVGID" class="cls-1" d="M237.11 85.33h52.53v30.33h-52.53z"/></clipPath><clipPath id="clip-path-57"><path id="SVGID-56" data-name="SVGID" class="cls-1" d="M237.11 115.65h52.53v30.33h-52.53z"/></clipPath><clipPath id="clip-path-58"><path id="SVGID-57" data-name="SVGID" class="cls-1" d="M237.11 145.98h52.53v30.33h-52.53z"/></clipPath><clipPath id="clip-path-59"><path id="SVGID-58" data-name="SVGID" class="cls-1" d="M237.11 176.31h52.53v30.33h-52.53z"/></clipPath><clipPath id="clip-path-60"><path id="SVGID-59" data-name="SVGID" class="cls-1" d="M237.11 206.63h52.53v30.33h-52.53z"/></clipPath><clipPath id="clip-path-61"><path id="SVGID-60" data-name="SVGID" class="cls-1" d="M237.11 236.96h52.53v30.33h-52.53z"/></clipPath><clipPath id="clip-path-62"><path id="SVGID-61" data-name="SVGID" class="cls-1" d="M237.11 267.28h52.53v30.33h-52.53z"/></clipPath><pattern id="Unnamed_Pattern-3" data-name="Unnamed Pattern" width="36.88" height="21.29" patternTransform="matrix(1.59 0 0 -1.59 -8838.4 28940.89)" patternUnits="userSpaceOnUse"><path class="cls-1" d="M0 0h36.88v21.29H0z"/><path class="cls-2" d="M.75 21.29L36.88.43v1.5L3.35 21.29H.75zM4.85 21.29L36.88 2.8v1.5L7.44 21.29H4.85zM13.04 21.29L36.88 7.53v1.5L15.64 21.29h-2.6zM0 19.36L33.53 0h2.6L0 20.86v-1.5zM0 16.99L29.43 0h2.6L0 18.49v-1.5zM8.94 21.29L36.88 5.17v1.49L11.54 21.29h-2.6zM0 12.26L21.24 0h2.59L0 13.76v-1.5zM0 14.63L25.33 0h2.6L0 16.13v-1.5zM0 .43L.75 0h2.6L0 1.93V.43zM0 7.53L13.04 0h2.6L0 9.03v-1.5zM0 5.16L8.94 0h2.6L0 6.66v-1.5zM0 9.9L17.14 0h2.6L0 11.4V9.9zM17.14 21.29L36.88 9.9v1.5l-17.14 9.89h-2.6zM0 2.8L4.85 0h2.6L0 4.3V2.8zM25.33 21.29l11.55-6.66v1.5l-8.95 5.16h-2.6zM21.24 21.29l15.64-9.03v1.5l-13.05 7.53h-2.59zM29.43 21.29l7.45-4.3v1.5l-4.85 2.8h-2.6zM36.13 21.29h-2.6l3.35-1.93v1.5l-.75.43z"/><path class="cls-3" d="M36.88 21.29h-.75l.75-.43v.43zM32.03 21.29l4.85-2.8v.87l-3.35 1.93h-1.5zM27.93 21.29l8.95-5.16v.86l-7.45 4.3h-1.5zM23.83 21.29l13.05-7.53v.87l-11.55 6.66h-1.5zM19.74 21.29l17.14-9.89v.86l-15.64 9.03h-1.5zM15.64 21.29L36.88 9.03v.87L17.14 21.29h-1.5zM11.54 21.29L36.88 6.66v.87L13.04 21.29h-1.5zM7.44 21.29L36.88 4.3v.87L8.94 21.29h-1.5zM3.35 21.29L36.88 1.93v.87L4.85 21.29h-1.5zM0 21.29v-.43L36.13 0h.75v.43L.75 21.29H0zM0 18.49L32.03 0h1.5L0 19.36v-.87zM0 16.13L27.93 0h1.5L0 16.99v-.86zM0 13.76L23.83 0h1.5L0 14.63v-.87zM0 11.39L19.74 0h1.5L0 12.26v-.87zM0 9.03L15.64 0h1.5L0 9.89v-.86zM0 6.66L11.54 0h1.5L0 7.53v-.87zM0 4.3L7.45 0h1.49L0 5.16V4.3zM0 1.93L3.35 0h1.5L0 2.8v-.87zM0 0h.75L0 .43V0z"/></pattern><clipPath id="clip-path-63"><path id="SVGID-62" data-name="SVGID" class="cls-1" d="M74.83 425.87c-.16-2.13-.38-4.25-.59-6.38-.5-5.19-1.12-10.4-1.89-15.65-.33-2.22-.64-4.42-1-6.65-1.08-6.42-2.31-12.87-3.78-19.34-.18-.79-.3-1.57-.5-2.37-1.69-7.25-3.65-14.51-5.8-21.76-.62-2.09-1.3-4.16-1.95-6.25q-2.52-8-5.37-16c-.82-2.28-1.64-4.56-2.5-6.84q-3.37-8.94-7.18-17.8c-.54-1.29-1-2.57-1.6-3.85-.13-.34-.26-.67-.41-1-2.92-6.6-6.06-13.13-9.31-19.64-.84-1.69-1.72-3.38-2.59-5.07q-4.58-8.88-9.51-17.58c-.63-1.09-1.21-2.19-1.83-3.27-3.84-6.62-7.87-13.12-12-19.53-1-1.57-2.06-3.11-3.09-4.67Q-1.53 224-7.31 216.05c-.8-1.11-1.58-2.26-2.4-3.36q-6.76-9.12-13.94-17.8c-1.14-1.39-2.3-2.74-3.46-4.11-1.82-2.14-3.59-4.35-5.42-6.44q-4.32-4.91-8.76-9.62c-.23-.24-.44-.49-.66-.73-5.22-5.55-10.57-10.84-16-16-.83-.79-1.67-1.6-2.51-2.38q-7.89-7.35-16.07-14.06c-1-.83-2-1.64-3-2.45-5.49-4.42-11.08-8.64-16.73-12.61-.83-.58-1.66-1.12-2.51-1.69-6-4.09-12-8-18.12-11.52l-108.36-62.52-184.25 107.07 108.31 62.53c6.12 3.53 12.15 7.42 18.12 11.51.83.57 1.68 1.12 2.51 1.7 5.65 4 11.24 8.18 16.73 12.61 1 .81 2 1.63 3 2.44q8.16 6.72 16.08 14.05c.84.79 1.67 1.6 2.5 2.39 5.44 5.15 10.8 10.46 16 16 .24.24.45.51.69.76 4.85 5.17 9.56 10.57 14.18 16.06 1.15 1.35 2.3 2.69 3.43 4.07q7.17 8.69 13.95 17.83c.82 1.09 1.59 2.22 2.39 3.32q5.77 7.95 11.24 16.18c1 1.55 2.06 3.09 3.07 4.64 4.15 6.43 8.18 12.94 12 19.57.61 1.06 1.19 2.14 1.8 3.21q5 8.71 9.54 17.64c.88 1.68 1.75 3.36 2.58 5.05 3.42 6.83 6.69 13.72 9.73 20.66.56 1.26 1 2.52 1.58 3.77q3.81 8.9 7.21 17.9c.86 2.26 1.67 4.53 2.48 6.79q2.86 8 5.38 16.05c.66 2.08 1.34 4.15 2 6.22 2.15 7.26 4.12 14.54 5.81 21.79.18.78.3 1.53.48 2.3 1.46 6.49 2.71 12.95 3.8 19.41.36 2.21.68 4.41 1 6.62.77 5.25 1.39 10.47 1.89 15.66.21 2.13.43 4.27.59 6.37.52 7.09.87 14.12.84 21.05-.09 30.45-5.5 56.38-15.24 77.24s-23.79 36.61-41.13 46.68L19.29 570.83C54 550.68 75.5 507.81 75.67 446.9c0-6.92-.32-14-.84-21"/></clipPath><clipPath id="clip-path-64"><path id="SVGID-63" data-name="SVGID" class="cls-1" d="M27.01 24.68h52.53v30.33H27.01z"/></clipPath><clipPath id="clip-path-65"><path id="SVGID-64" data-name="SVGID" class="cls-1" d="M27.01 55h52.53v30.33H27.01z"/></clipPath><clipPath id="clip-path-66"><path id="SVGID-65" data-name="SVGID" class="cls-1" d="M27.01 85.33h52.53v30.33H27.01z"/></clipPath><clipPath id="clip-path-67"><path id="SVGID-66" data-name="SVGID" class="cls-1" d="M27.01 115.65h52.53v30.33H27.01z"/></clipPath><clipPath id="clip-path-68"><path id="SVGID-67" data-name="SVGID" class="cls-1" d="M27.01 145.98h52.53v30.33H27.01z"/></clipPath><clipPath id="clip-path-69"><path id="SVGID-68" data-name="SVGID" class="cls-1" d="M27.01 176.31h52.53v30.33H27.01z"/></clipPath><clipPath id="clip-path-70"><path id="SVGID-69" data-name="SVGID" class="cls-1" d="M27.01 206.63h52.53v30.33H27.01z"/></clipPath><clipPath id="clip-path-71"><path id="SVGID-70" data-name="SVGID" class="cls-1" d="M27.01 236.96h52.53v30.33H27.01z"/></clipPath><clipPath id="clip-path-72"><path id="SVGID-71" data-name="SVGID" class="cls-1" d="M27.01 267.28h52.53v30.33H27.01z"/></clipPath><clipPath id="clip-path-73"><path id="SVGID-72" data-name="SVGID" class="cls-1" d="M27.01 297.61h52.53v30.33H27.01z"/></clipPath><clipPath id="clip-path-74"><path id="SVGID-73" data-name="SVGID" class="cls-1" d="M-25.52 24.68h52.53v30.33h-52.53z"/></clipPath><clipPath id="clip-path-75"><path id="SVGID-74" data-name="SVGID" class="cls-1" d="M-25.52 55h52.53v30.33h-52.53z"/></clipPath><clipPath id="clip-path-76"><path id="SVGID-75" data-name="SVGID" class="cls-1" d="M-25.52 85.33h52.53v30.33h-52.53z"/></clipPath><clipPath id="clip-path-77"><path id="SVGID-76" data-name="SVGID" class="cls-1" d="M-25.52 115.65h52.53v30.33h-52.53z"/></clipPath><clipPath id="clip-path-78"><path id="SVGID-77" data-name="SVGID" class="cls-1" d="M-25.52 145.98h52.53v30.33h-52.53z"/></clipPath><clipPath id="clip-path-79"><path id="SVGID-78" data-name="SVGID" class="cls-1" d="M-25.52 176.31h52.53v30.33h-52.53z"/></clipPath><clipPath id="clip-path-80"><path id="SVGID-79" data-name="SVGID" class="cls-1" d="M-25.52 206.63h52.53v30.33h-52.53z"/></clipPath><clipPath id="clip-path-81"><path id="SVGID-80" data-name="SVGID" class="cls-1" d="M-25.52 236.96h52.53v30.33h-52.53z"/></clipPath><clipPath id="clip-path-82"><path id="SVGID-81" data-name="SVGID" class="cls-1" d="M-25.52 267.28h52.53v30.33h-52.53z"/></clipPath><clipPath id="clip-path-83"><path id="SVGID-82" data-name="SVGID" class="cls-1" d="M-25.52 297.61h52.53v30.33h-52.53z"/></clipPath><clipPath id="clip-path-84"><path id="SVGID-83" data-name="SVGID" class="cls-1" d="M494.33 674.37c-.16-2.12-.38-4.25-.59-6.38-.5-5.19-1.11-10.4-1.89-15.65-.32-2.22-.64-4.41-1-6.64-1.08-6.43-2.31-12.87-3.78-19.35-.18-.78-.3-1.57-.49-2.36-1.7-7.25-3.66-14.51-5.81-21.77-.62-2.09-1.3-4.16-1.95-6.24q-2.52-8-5.37-16c-.82-2.29-1.64-4.56-2.5-6.85q-3.36-8.94-7.17-17.79c-.55-1.3-1-2.58-1.61-3.86-.13-.34-.26-.67-.4-1-2.93-6.6-6.07-13.14-9.32-19.64-.84-1.7-1.72-3.39-2.59-5.08q-4.58-8.88-9.51-17.57c-.62-1.09-1.21-2.2-1.83-3.28q-5.76-9.93-12-19.53c-1-1.57-2.06-3.11-3.09-4.66q-5.45-8.22-11.21-16.15c-.8-1.11-1.59-2.26-2.41-3.37q-6.77-9.1-13.93-17.8c-1.15-1.38-2.31-2.74-3.47-4.11-1.81-2.14-3.59-4.35-5.42-6.44q-4.32-4.89-8.76-9.62l-.66-.73c-5.21-5.55-10.57-10.84-16-16-.83-.78-1.66-1.59-2.51-2.38q-7.89-7.35-16.07-14.06c-1-.82-2-1.63-3-2.44-5.49-4.42-11.08-8.65-16.73-12.62-.83-.57-1.66-1.12-2.51-1.69-6-4.08-12-8-18.12-11.51l-108.38-62.54L10 406.33l108.31 62.53c6.12 3.54 12.15 7.42 18.12 11.51.83.58 1.68 1.12 2.52 1.71 5.65 4 11.23 8.18 16.72 12.6 1 .81 2 1.63 3 2.45q8.16 6.72 16.08 14.05c.84.78 1.67 1.6 2.51 2.38 5.43 5.16 10.8 10.46 16 16 .24.24.45.5.69.75 4.84 5.18 9.55 10.57 14.17 16.06 1.15 1.36 2.3 2.69 3.43 4.07q7.17 8.7 13.95 17.83c.82 1.09 1.59 2.22 2.39 3.33q5.79 7.95 11.24 16.18c1 1.55 2.07 3.08 3.07 4.64 4.16 6.43 8.18 12.93 12 19.56.61 1.07 1.18 2.14 1.79 3.21 3.31 5.81 6.48 11.71 9.55 17.64.87 1.69 1.74 3.36 2.58 5 3.41 6.84 6.68 13.72 9.73 20.66.56 1.26 1 2.53 1.57 3.78 2.54 5.93 5 11.9 7.21 17.89.86 2.26 1.67 4.53 2.48 6.8q2.86 8 5.38 16.05c.66 2.08 1.34 4.14 2 6.22 2.14 7.26 4.12 14.54 5.8 21.79.18.78.3 1.52.49 2.29 1.46 6.49 2.71 13 3.79 19.41.37 2.21.68 4.41 1 6.63.77 5.25 1.39 10.46 1.89 15.66.21 2.12.43 4.26.59 6.37.52 7.08.87 14.11.85 21-.09 30.45-5.51 56.39-15.25 77.25s-23.79 36.61-41.13 46.68l184.27-106.97c34.69-20.16 56.22-63 56.38-123.93 0-6.93-.32-14-.84-21"/></clipPath><clipPath id="clip-path-85"><path id="SVGID-84" data-name="SVGID" class="cls-1" d="M-.66 297.61h52.53v30.33H-.66z"/></clipPath><clipPath id="clip-path-86"><path id="SVGID-85" data-name="SVGID" class="cls-1" d="M51.86 297.61h52.53v30.33H51.86z"/></clipPath><clipPath id="clip-path-87"><path id="SVGID-86" data-name="SVGID" class="cls-1" d="M104.39 297.61h52.53v30.33h-52.53z"/></clipPath><clipPath id="clip-path-88"><path id="SVGID-87" data-name="SVGID" class="cls-1" d="M156.92 297.61h52.53v30.33h-52.53z"/></clipPath><clipPath id="clip-path-89"><path id="SVGID-88" data-name="SVGID" class="cls-1" d="M209.44 297.61h52.53v30.33h-52.53z"/></clipPath><clipPath id="clip-path-90"><path id="SVGID-89" data-name="SVGID" class="cls-1" d="M261.97 297.61h52.53v30.33h-52.53z"/></clipPath><clipPath id="clip-path-91"><path id="SVGID-90" data-name="SVGID" class="cls-1" d="M314.49 297.61h52.53v30.33h-52.53z"/></clipPath><clipPath id="clip-path-92"><path id="SVGID-91" data-name="SVGID" class="cls-1" d="M367.02 297.61h52.53v30.33h-52.53z"/></clipPath><clipPath id="clip-path-93"><path id="SVGID-92" data-name="SVGID" class="cls-1" d="M419.55 297.61h52.53v30.33h-52.53z"/></clipPath><clipPath id="clip-path-94"><path id="SVGID-93" data-name="SVGID" class="cls-1" d="M472.07 297.61h52.53v30.33h-52.53z"/></clipPath></defs><g clip-path="url(#clip-path)"><path class="cls-1" d="M0 0h500v300H0z"/><path d="M375.8 279.05c.35-122.61-85.91-272-192.61-333.55L74.9-117l25.28 14.59-56.94 33.05 25.28 14.6-56.94 33.09L37-7l15.55 9L25.1 18C19.85 33.4 17 51.48 17 71.86c0 5.93.28 12 .73 18 .12 1.82.32 3.66.5 5.49.42 4.44 1 8.92 1.62 13.4.28 1.9.54 3.8.86 5.7Q22 122.73 23.89 131c.16.72.28 1.41.44 2.13 1.45 6.21 3.13 12.43 5 18.65.53 1.79 1.12 3.57 1.68 5.36q2.14 6.85 4.59 13.72c.7 2 1.4 3.91 2.15 5.88q2.87 7.62 6.1 15.15c.49 1.14.93 2.29 1.42 3.42.14.3.24.61.38.9 2.49 5.64 5.17 11.22 7.94 16.77q1.09 2.19 2.24 4.36c2.6 5.05 5.29 10.08 8.12 15 .54.93 1 1.88 1.59 2.83q4.93 8.51 10.29 16.73c.86 1.35 1.75 2.66 2.64 4q4.66 7 9.6 13.84c.7.94 1.37 1.92 2.06 2.87q5.82 7.83 12 15.26c1 1.19 2 2.35 2.94 3.51 1.56 1.85 3.09 3.74 4.67 5.54q3.69 4.19 7.47 8.2l.6.67c4.47 4.75 9.05 9.29 13.71 13.69.72.69 1.44 1.4 2.18 2.07q6.75 6.3 13.76 12l2.6 2.11c4.72 3.79 9.49 7.41 14.34 10.81.71.49 1.44 1 2.16 1.46 5.12 3.5 10.29 6.83 15.53 9.86 46 26.57 87.72 29 117.82 11.55l70.05-40.72c-7.42 30.13-21.65 53.25-41.12 68.07 29.16-22.08 46.88-62.44 47-117.69" fill="url(#Unnamed_Pattern)"/><path class="cls-6" d="M899-25c0-6.92-.31-14-.84-21-.16-2.12-.39-4.25-.59-6.39-.5-5.19-1.12-10.41-1.9-15.65-.32-2.22-.62-4.41-1-6.62-1.08-6.46-2.33-12.93-3.8-19.44-.18-.75-.29-1.5-.47-2.26-1.69-7.25-3.66-14.51-5.8-21.76-.61-2.1-1.31-4.18-2-6.27q-2.49-8-5.37-16a325.3 325.3 0 0 0-2.48-6.81q-3.39-9-7.21-17.91c-.55-1.25-1-2.5-1.56-3.75-.15-.32-.27-.65-.41-1v-.05q-2.18-4.94-4.51-9.81-2.32-4.89-4.76-9.75c-.85-1.69-1.72-3.37-2.58-5.06a501.96 501.96 0 0 0-9.57-17.67c-.6-1.05-1.16-2.11-1.77-3.16q-5.77-9.94-12-19.56c-1-1.56-2.05-3.1-3.08-4.64q-5.46-8.24-11.24-16.19c-.81-1.1-1.57-2.22-2.38-3.31q-6.78-9.14-14-17.83Q798-279 796.23-281c-1.81-2.16-3.58-4.34-5.42-6.44-2.89-3.28-5.83-6.5-8.78-9.66l-.64-.7q-5.8-6.16-11.82-12l-.32-.31c-1.3-1.25-2.6-2.5-3.9-3.73-.83-.8-1.64-1.58-2.49-2.37-4.32-4-8.73-7.85-13.17-11.59-1-.81-1.93-1.66-2.91-2.46l-.19-.16c-1-.77-1.88-1.53-2.84-2.29q-8.25-6.64-16.73-12.61c-.73-.51-1.47-1-2.21-1.49l-.3-.2-.72-.49c-5.73-3.91-11.53-7.64-17.41-11l-108.3-62.52L74.9-117l108.29 62.5c106.7 61.59 193 210.94 192.61 333.55-.15 55.25-17.87 95.61-47 117.69l-1 .76c-1.15.84-2.3 1.66-3.48 2.45q-2.37 1.59-4.83 3L842.64 99C877.33 78.79 898.83 35.93 899-25"/><g clip-path="url(#clip-path-2)"><g clip-path="url(#clip-path-3)"><path class="cls-9" d="M499.74 24.68v-.41l51.82-29.92h.71v.41l-51.82 29.92h-.71zM499.74 20.9l45.98-26.55h1.43l-47.41 27.37v-.82zM499.74 17.53l40.14-23.18h1.43l-41.57 24v-.82zM499.74 14.16l34.31-19.81h1.42l-35.73 20.63v-.82zM499.74 10.79l28.47-16.44h1.42l-29.89 17.26v-.82zM499.74 7.42l22.64-13.07h1.42L499.74 8.24v-.82zM499.74 4.05l16.8-9.7h1.42L499.74 4.87v-.82zM499.74.68l10.96-6.33h1.43L499.74 1.5V.68z"/></g><g clip-path="url(#clip-path-4)"><path class="cls-9" d="M499.74 55v-.41l51.82-29.91h.71v.41L500.45 55h-.71zM499.74 51.22l45.98-26.54h1.43l-47.41 27.36v-.82zM499.74 47.85l40.14-23.17h1.43l-41.57 23.99v-.82zM499.74 44.48l34.31-19.8h1.42L499.74 45.3v-.82zM499.74 41.11l28.47-16.43h1.42l-29.89 17.26v-.83zM499.74 37.74l22.64-13.06h1.42l-24.06 13.89v-.83zM499.74 34.38l16.8-9.7h1.42L499.74 35.2v-.82zM499.74 31l10.96-6.32h1.43l-12.39 7.15V31zM499.74 27.64l5.13-2.96h1.42l-6.55 3.78v-.82zM499.74 24.68h.71l-.71.41v-.41z"/></g><g clip-path="url(#clip-path-5)"><path class="cls-9" d="M499.74 85.33v-.41L551.56 55h.71v.41l-51.82 29.92h-.71zM499.74 81.55L545.72 55h1.43l-47.41 27.37v-.82zM499.74 78.18L539.88 55h1.43l-41.57 24v-.82zM499.74 74.81L534.05 55h1.42l-35.73 20.63v-.82zM499.74 71.44L528.21 55h1.42l-29.89 17.26v-.82zM499.74 68.07L522.38 55h1.42l-24.06 13.89v-.82zM499.74 64.7l16.8-9.7h1.42l-18.22 10.52v-.82zM499.74 61.33L510.7 55h1.43l-12.39 7.15v-.82zM499.74 57.96l5.13-2.96h1.42l-6.55 3.78v-.82zM499.74 55h.71l-.71.41V55z"/></g><g clip-path="url(#clip-path-6)"><path class="cls-9" d="M499.74 115.66v-.42l51.82-29.91h.71v.41l-51.82 29.92h-.71zM499.74 111.87l45.98-26.54h1.43l-47.41 27.37v-.83zM499.74 108.5l40.14-23.17h1.43l-41.57 24v-.83zM499.74 105.14l34.31-19.81h1.42l-35.73 20.63v-.82zM499.74 101.77l28.47-16.44h1.42l-29.89 17.26v-.82zM499.74 98.4l22.64-13.07h1.42l-24.06 13.89v-.82zM499.74 95.03l16.8-9.7h1.42l-18.22 10.52v-.82zM499.74 91.66l10.96-6.33h1.43l-12.39 7.15v-.82zM499.74 88.29l5.13-2.96h1.42l-6.55 3.78v-.82zM499.74 85.33h.71l-.71.41v-.41z"/></g><g clip-path="url(#clip-path-7)"><path class="cls-9" d="M499.74 145.98v-.41l51.82-29.91h.71v.4l-51.82 29.92h-.71zM499.74 142.2l45.98-26.55h1.43l-47.41 27.37v-.82zM499.74 138.83l40.14-23.17h1.43l-41.57 23.99v-.82zM499.74 135.46l34.31-19.8h1.42l-35.73 20.62v-.82zM499.74 132.09l28.47-16.43h1.42l-29.89 17.25v-.82zM499.74 128.72l22.64-13.07h1.42l-24.06 13.89v-.82zM499.74 125.35l16.8-9.7h1.42l-18.22 10.52v-.82zM499.74 121.98l10.96-6.33h1.43l-12.39 7.16v-.83zM499.74 118.61l5.13-2.95h1.42l-6.55 3.78v-.83zM499.74 115.66h.71l-.71.41v-.41z"/></g><g clip-path="url(#clip-path-8)"><path class="cls-9" d="M499.74 176.31v-.41l51.82-29.92h.71v.41l-51.82 29.92h-.71zM499.74 172.53l45.98-26.55h1.43l-47.41 27.37v-.82zM499.74 169.16l40.14-23.18h1.43l-41.57 24v-.82zM499.74 165.79l34.31-19.81h1.42l-35.73 20.63v-.82zM499.74 162.42l28.47-16.44h1.42l-29.89 17.26v-.82zM499.74 159.05l22.64-13.07h1.42l-24.06 13.89v-.82zM499.74 155.68l16.8-9.7h1.42l-18.22 10.52v-.82zM499.74 152.31l10.96-6.33h1.43l-12.39 7.15v-.82zM499.74 148.94l5.13-2.96h1.42l-6.55 3.78v-.82zM499.74 145.98h.71l-.71.41v-.41z"/></g><g clip-path="url(#clip-path-9)"><path class="cls-9" d="M499.74 206.63v-.41l51.82-29.91h.71v.41l-51.82 29.91h-.71zM499.74 202.85l45.98-26.54h1.43l-47.41 27.36v-.82zM499.74 199.48l40.14-23.17h1.43l-41.57 23.99v-.82zM499.74 196.11l34.31-19.8h1.42l-35.73 20.63v-.83zM499.74 192.74l28.47-16.43h1.42l-29.89 17.25v-.82zM499.74 189.37l22.64-13.06h1.42l-24.06 13.89v-.83zM499.74 186l16.8-9.69h1.42l-18.22 10.52V186zM499.74 182.63l10.96-6.32h1.43l-12.39 7.15v-.83zM499.74 179.26l5.13-2.95h1.42l-6.55 3.78v-.83zM499.74 176.31h.71l-.71.41v-.41z"/></g><g clip-path="url(#clip-path-10)"><path class="cls-9" d="M499.74 236.96v-.41l51.82-29.92h.71v.41l-51.82 29.92h-.71zM499.74 233.18l45.98-26.55h1.43L499.74 234v-.82zM499.74 229.81l40.14-23.18h1.43l-41.57 24v-.82zM499.74 226.44l34.31-19.81h1.42l-35.73 20.63v-.82zM499.74 223.07l28.47-16.44h1.42l-29.89 17.26v-.82zM499.74 219.7l22.64-13.07h1.42l-24.06 13.89v-.82zM499.74 216.33l16.8-9.7h1.42l-18.22 10.52v-.82zM499.74 212.96l10.96-6.33h1.43l-12.39 7.15v-.82zM499.74 209.59l5.13-2.96h1.42l-6.55 3.78v-.82zM499.74 206.63h.71l-.71.41v-.41z"/></g><g clip-path="url(#clip-path-11)"><path class="cls-9" d="M499.74 267.29v-.42l51.82-29.91h.71v.41l-51.82 29.92h-.71zM499.74 263.5l45.98-26.54h1.43l-47.41 27.37v-.83zM499.74 260.13l40.14-23.17h1.43l-41.57 24v-.83zM499.74 256.76l34.31-19.8h1.42l-35.73 20.63v-.83zM499.74 253.4l28.47-16.44h1.42l-29.89 17.26v-.82zM499.74 250.03l22.64-13.07h1.42l-24.06 13.89v-.82zM499.74 246.66l16.8-9.7h1.42l-18.22 10.52v-.82zM499.74 243.29l10.96-6.33h1.43l-12.39 7.15v-.82zM499.74 239.92l5.13-2.96h1.42l-6.55 3.78v-.82zM499.74 236.96h.71l-.71.41v-.41z"/></g><g clip-path="url(#clip-path-12)"><path class="cls-9" d="M499.74 297.61v-.41l51.82-29.91h.71v.4l-51.82 29.92h-.71zM499.74 293.83l45.98-26.55h1.43l-47.41 27.37v-.82zM499.74 290.46l40.14-23.17h1.43l-41.57 23.99v-.82zM499.74 287.09l34.31-19.8h1.42l-35.73 20.62v-.82zM499.74 283.72l28.47-16.43h1.42l-29.89 17.25v-.82zM499.74 280.35l22.64-13.06h1.42l-24.06 13.88v-.82zM499.74 276.98l16.8-9.7h1.42l-18.22 10.53v-.83zM499.74 273.61l10.96-6.33h1.43l-12.39 7.16v-.83zM499.74 270.24l5.13-2.95h1.42l-6.55 3.77v-.82zM499.74 267.29h.71l-.71.41v-.41z"/></g><g clip-path="url(#clip-path-13)"><path class="cls-9" d="M499.74 24.68h-.71l.71-.41v.41zM493.19 24.68l6.55-3.78v.82l-5.12 2.96h-1.43zM487.36 24.68l12.38-7.15v.82l-10.96 6.33h-1.42zM481.52 24.68l18.22-10.52v.82l-16.8 9.7h-1.42zM475.69 24.68l24.05-13.89v.82l-22.63 13.07h-1.42zM469.85 24.68l29.89-17.26v.82l-28.47 16.44h-1.42zM464.01 24.68l35.73-20.63v.82l-34.3 19.81h-1.43zM458.18 24.68l41.56-24v.82L459.6 24.68h-1.42zM452.34 24.68l47.4-27.37v.82l-45.98 26.55h-1.42zM447.22 24.68v-.41l51.81-29.92h.71v.41l-51.81 29.92h-.71zM447.22 20.9l45.97-26.55h1.43l-47.4 27.37v-.82zM447.22 17.53l40.14-23.18h1.42l-41.56 24v-.82zM447.22 14.16l34.3-19.81h1.42l-35.72 20.63v-.82zM447.22 10.79l28.47-16.44h1.42l-29.89 17.26v-.82zM447.22 7.42l22.63-13.07h1.42L447.22 8.24v-.82zM447.22 4.05l16.79-9.7h1.43L447.22 4.87v-.82zM447.22.68l10.96-6.33h1.42L447.22 1.5V.68z"/></g><g clip-path="url(#clip-path-14)"><path class="cls-9" d="M499.74 55h-.71l.71-.41V55zM493.19 55l6.55-3.78v.82L494.62 55h-1.43zM487.36 55l12.38-7.15v.82L488.78 55h-1.42zM481.52 55l18.22-10.52v.82l-16.8 9.7h-1.42zM475.69 55l24.05-13.89v.83L477.11 55h-1.42zM469.85 55l29.89-17.26v.82L471.27 55h-1.42zM464.01 55l35.73-20.63v.83L465.44 55h-1.43zM458.18 55l41.56-24v.83L459.6 55h-1.42zM452.34 55l47.4-27.36v.82L453.76 55h-1.42zM447.22 55v-.41l51.81-29.91h.71v.41L447.93 55h-.71zM447.22 51.22l45.97-26.54h1.43l-47.4 27.36v-.82zM447.22 47.85l40.14-23.17h1.42l-41.56 23.99v-.82zM447.22 44.48l34.3-19.8h1.42L447.22 45.3v-.82zM447.22 41.11l28.47-16.43h1.42l-29.89 17.26v-.83zM447.22 37.74l22.63-13.06h1.42l-24.05 13.89v-.83zM447.22 34.38l16.79-9.7h1.43L447.22 35.2v-.82zM447.22 31l10.96-6.32h1.42l-12.38 7.15V31zM447.22 27.64l5.12-2.96h1.42l-6.54 3.78v-.82zM447.22 24.68h.71l-.71.41v-.41z"/></g><g clip-path="url(#clip-path-15)"><path class="cls-9" d="M499.74 85.33h-.71l.71-.41v.41zM493.19 85.33l6.55-3.78v.82l-5.12 2.96h-1.43zM487.36 85.33l12.38-7.15V79l-10.96 6.33h-1.42zM481.52 85.33l18.22-10.52v.82l-16.8 9.7h-1.42zM475.69 85.33l24.05-13.89v.82l-22.63 13.07h-1.42zM469.85 85.33l29.89-17.26v.82l-28.47 16.44h-1.42zM464.01 85.33l35.73-20.63v.82l-34.3 19.81h-1.43zM458.18 85.33l41.56-24v.82L459.6 85.33h-1.42zM452.34 85.33l47.4-27.37v.82l-45.98 26.55h-1.42zM447.22 85.33v-.41L499.03 55h.71v.41l-51.81 29.92h-.71zM447.22 81.55L493.19 55h1.43l-47.4 27.37v-.82zM447.22 78.18L487.36 55h1.42l-41.56 24v-.82zM447.22 74.81L481.52 55h1.42l-35.72 20.63v-.82zM447.22 71.44L475.69 55h1.42l-29.89 17.26v-.82zM447.22 68.07L469.85 55h1.42l-24.05 13.89v-.82zM447.22 64.7l16.79-9.7h1.43l-18.22 10.52v-.82zM447.22 61.33L458.18 55h1.42l-12.38 7.15v-.82zM447.22 57.96l5.12-2.96h1.42l-6.54 3.78v-.82zM447.22 55h.71l-.71.41V55z"/></g><g clip-path="url(#clip-path-16)"><path class="cls-9" d="M499.74 115.66h-.71l.71-.42v.42zM493.19 115.66l6.55-3.79v.83l-5.12 2.96h-1.43zM487.36 115.66l12.38-7.16v.83l-10.96 6.33h-1.42zM481.52 115.66l18.22-10.52v.82l-16.8 9.7h-1.42zM475.69 115.66l24.05-13.89v.82l-22.63 13.07h-1.42zM469.85 115.66l29.89-17.26v.82l-28.47 16.44h-1.42zM464.01 115.66l35.73-20.63v.82l-34.3 19.81h-1.43zM458.18 115.66l41.56-24v.82l-40.14 23.18h-1.42zM452.34 115.66l47.4-27.37v.82l-45.98 26.55h-1.42zM447.22 115.66v-.42l51.81-29.91h.71v.41l-51.81 29.92h-.71zM447.22 111.87l45.97-26.54h1.43l-47.4 27.37v-.83zM447.22 108.5l40.14-23.17h1.42l-41.56 24v-.83zM447.22 105.14l34.3-19.81h1.42l-35.72 20.63v-.82zM447.22 101.77l28.47-16.44h1.42l-29.89 17.26v-.82zM447.22 98.4l22.63-13.07h1.42l-24.05 13.89v-.82zM447.22 95.03l16.79-9.7h1.43l-18.22 10.52v-.82zM447.22 91.66l10.96-6.33h1.42l-12.38 7.15v-.82zM447.22 88.29l5.12-2.96h1.42l-6.54 3.78v-.82zM447.22 85.33h.71l-.71.41v-.41z"/></g><g clip-path="url(#clip-path-17)"><path class="cls-9" d="M499.74 145.98h-.71l.71-.41v.41zM493.19 145.98l6.55-3.78v.82l-5.12 2.96h-1.43zM487.36 145.98l12.38-7.15v.82l-10.96 6.33h-1.42zM481.52 145.98l18.22-10.52v.82l-16.8 9.7h-1.42zM475.69 145.98l24.05-13.89v.82l-22.63 13.07h-1.42zM469.85 145.98l29.89-17.26v.82l-28.47 16.44h-1.42zM464.01 145.98l35.73-20.63v.82l-34.3 19.81h-1.43zM458.18 145.98l41.56-24v.82l-40.14 23.18h-1.42zM452.34 145.98l47.4-27.37v.83l-45.98 26.54h-1.42zM447.22 145.98v-.41l51.81-29.91h.71v.4l-51.81 29.92h-.71zM447.22 142.2l45.97-26.55h1.43l-47.4 27.37v-.82zM447.22 138.83l40.14-23.17h1.42l-41.56 23.99v-.82zM447.22 135.46l34.3-19.8h1.42l-35.72 20.62v-.82zM447.22 132.09l28.47-16.43h1.42l-29.89 17.25v-.82zM447.22 128.72l22.63-13.07h1.42l-24.05 13.89v-.82zM447.22 125.35l16.79-9.7h1.43l-18.22 10.52v-.82zM447.22 121.98l10.96-6.33h1.42l-12.38 7.16v-.83zM447.22 118.61l5.12-2.95h1.42l-6.54 3.78v-.83zM447.22 115.66h.71l-.71.41v-.41z"/></g><g clip-path="url(#clip-path-18)"><path class="cls-9" d="M499.74 176.31h-.71l.71-.41v.41zM493.19 176.31l6.55-3.78v.82l-5.12 2.96h-1.43zM487.36 176.31l12.38-7.15v.82l-10.96 6.33h-1.42zM481.52 176.31l18.22-10.52v.82l-16.8 9.7h-1.42zM475.69 176.31l24.05-13.89v.82l-22.63 13.07h-1.42zM469.85 176.31l29.89-17.26v.82l-28.47 16.44h-1.42zM464.01 176.31l35.73-20.63v.82l-34.3 19.81h-1.43zM458.18 176.31l41.56-24v.82l-40.14 23.18h-1.42zM452.34 176.31l47.4-27.37v.82l-45.98 26.55h-1.42zM447.22 176.31v-.41l51.81-29.92h.71v.41l-51.81 29.92h-.71zM447.22 172.53l45.97-26.55h1.43l-47.4 27.37v-.82zM447.22 169.16l40.14-23.18h1.42l-41.56 24v-.82zM447.22 165.79l34.3-19.81h1.42l-35.72 20.63v-.82zM447.22 162.42l28.47-16.44h1.42l-29.89 17.26v-.82zM447.22 159.05l22.63-13.07h1.42l-24.05 13.89v-.82zM447.22 155.68l16.79-9.7h1.43l-18.22 10.52v-.82zM447.22 152.31l10.96-6.33h1.42l-12.38 7.15v-.82zM447.22 148.94l5.12-2.96h1.42l-6.54 3.78v-.82zM447.22 145.98h.71l-.71.41v-.41z"/></g><g clip-path="url(#clip-path-19)"><path class="cls-9" d="M499.74 206.63h-.71l.71-.41v.41zM493.19 206.63l6.55-3.78v.82l-5.12 2.96h-1.43zM487.36 206.63l12.38-7.15v.82l-10.96 6.33h-1.42zM481.52 206.63l18.22-10.52v.83l-16.8 9.69h-1.42zM475.69 206.63l24.05-13.89v.82l-22.63 13.07h-1.42zM469.85 206.63l29.89-17.25v.81l-28.47 16.44h-1.42zM464.01 206.63L499.74 186v.83l-34.3 19.8h-1.43zM458.18 206.63l41.56-24v.83l-40.14 23.17h-1.42zM452.34 206.63l47.4-27.36v.82l-45.98 26.54h-1.42zM447.22 206.63v-.41l51.81-29.91h.71v.41l-51.81 29.91h-.71zM447.22 202.85l45.97-26.54h1.43l-47.4 27.36v-.82zM447.22 199.48l40.14-23.17h1.42l-41.56 23.99v-.82zM447.22 196.11l34.3-19.8h1.42l-35.72 20.63v-.83zM447.22 192.74l28.47-16.43h1.42l-29.89 17.25v-.82zM447.22 189.37l22.63-13.06h1.42l-24.05 13.89v-.83zM447.22 186l16.79-9.69h1.43l-18.22 10.52V186zM447.22 182.63l10.96-6.32h1.42l-12.38 7.15v-.83zM447.22 179.26l5.12-2.95h1.42l-6.54 3.78v-.83zM447.22 176.31h.71l-.71.41v-.41z"/></g><g clip-path="url(#clip-path-20)"><path class="cls-9" d="M499.74 236.96h-.71l.71-.41v.41zM493.19 236.96l6.55-3.78v.82l-5.12 2.96h-1.43zM487.36 236.96l12.38-7.15v.82l-10.96 6.33h-1.42zM481.52 236.96l18.22-10.52v.82l-16.8 9.7h-1.42zM475.69 236.96l24.05-13.89v.82l-22.63 13.07h-1.42zM469.85 236.96l29.89-17.26v.82l-28.47 16.44h-1.42zM464.01 236.96l35.73-20.63v.82l-34.3 19.81h-1.43zM458.18 236.96l41.56-24v.82l-40.14 23.18h-1.42zM452.34 236.96l47.4-27.37v.82l-45.98 26.55h-1.42zM447.22 236.96v-.41l51.81-29.92h.71v.41l-51.81 29.92h-.71zM447.22 233.18l45.97-26.55h1.43L447.22 234v-.82zM447.22 229.81l40.14-23.18h1.42l-41.56 24v-.82zM447.22 226.44l34.3-19.81h1.42l-35.72 20.63v-.82zM447.22 223.07l28.47-16.44h1.42l-29.89 17.26v-.82zM447.22 219.7l22.63-13.07h1.42l-24.05 13.89v-.82zM447.22 216.33l16.79-9.7h1.43l-18.22 10.52v-.82zM447.22 212.96l10.96-6.33h1.42l-12.38 7.15v-.82zM447.22 209.59l5.12-2.96h1.42l-6.54 3.78v-.82zM447.22 206.63h.71l-.71.41v-.41z"/></g><g clip-path="url(#clip-path-21)"><path class="cls-9" d="M499.74 267.29h-.71l.71-.42v.42zM493.19 267.29l6.55-3.79v.83l-5.12 2.96h-1.43zM487.36 267.29l12.38-7.16v.83l-10.96 6.33h-1.42zM481.52 267.29l18.22-10.53v.83l-16.8 9.7h-1.42zM475.69 267.29l24.05-13.89v.82l-22.63 13.07h-1.42zM469.85 267.29l29.89-17.26v.82l-28.47 16.44h-1.42zM464.01 267.29l35.73-20.63v.82l-34.3 19.81h-1.43zM458.18 267.29l41.56-24v.82l-40.14 23.18h-1.42zM452.34 267.29l47.4-27.37v.82l-45.98 26.55h-1.42zM447.22 267.29v-.42l51.81-29.91h.71v.41l-51.81 29.92h-.71zM447.22 263.5l45.97-26.54h1.43l-47.4 27.37v-.83zM447.22 260.13l40.14-23.17h1.42l-41.56 24v-.83zM447.22 256.76l34.3-19.8h1.42l-35.72 20.63v-.83zM447.22 253.4l28.47-16.44h1.42l-29.89 17.26v-.82zM447.22 250.03l22.63-13.07h1.42l-24.05 13.89v-.82zM447.22 246.66l16.79-9.7h1.43l-18.22 10.52v-.82zM447.22 243.29l10.96-6.33h1.42l-12.38 7.15v-.82zM447.22 239.92l5.12-2.96h1.42l-6.54 3.78v-.82zM447.22 236.96h.71l-.71.41v-.41z"/></g><g clip-path="url(#clip-path-22)"><path class="cls-9" d="M499.74 297.61h-.71l.71-.41v.41zM493.19 297.61l6.55-3.78v.82l-5.12 2.96h-1.43zM487.36 297.61l12.38-7.15v.82l-10.96 6.33h-1.42zM481.52 297.61l18.22-10.52v.82l-16.8 9.7h-1.42zM475.69 297.61l24.05-13.89v.82l-22.63 13.07h-1.42zM469.85 297.61l29.89-17.26v.82l-28.47 16.44h-1.42zM464.01 297.61l35.73-20.63v.82l-34.3 19.81h-1.43zM458.18 297.61l41.56-24v.82l-40.14 23.18h-1.42zM452.34 297.61l47.4-27.37v.83l-45.98 26.54h-1.42zM447.22 297.61v-.41l51.81-29.91h.71v.4l-51.81 29.92h-.71zM447.22 293.83l45.97-26.55h1.43l-47.4 27.37v-.82zM447.22 290.46l40.14-23.17h1.42l-41.56 23.99v-.82zM447.22 287.09l34.3-19.8h1.42l-35.72 20.62v-.82zM447.22 283.72l28.47-16.43h1.42l-29.89 17.25v-.82zM447.22 280.35l22.63-13.06h1.42l-24.05 13.88v-.82zM447.22 276.98l16.79-9.7h1.43l-18.22 10.53v-.83zM447.22 273.61l10.96-6.33h1.42l-12.38 7.16v-.83zM447.22 270.24l5.12-2.95h1.42l-6.54 3.77v-.82zM447.22 267.29h.71l-.71.41v-.41z"/></g><g clip-path="url(#clip-path-23)"><path class="cls-9" d="M447.22 24.68h-.72l.72-.41v.41zM440.67 24.68l6.55-3.78v.82l-5.13 2.96h-1.42zM434.83 24.68l12.39-7.15v.82l-10.97 6.33h-1.42zM429 24.68l18.22-10.52v.82l-16.8 9.7H429zM423.16 24.68l24.06-13.89v.82l-22.64 13.07h-1.42zM417.32 24.68l29.9-17.26v.82l-28.47 16.44h-1.43zM411.49 24.68l35.73-20.63v.82l-34.31 19.81h-1.42zM405.65 24.68l41.57-24v.82l-40.15 23.18h-1.42zM399.82 24.68l47.4-27.37v.82l-45.98 26.55h-1.42zM394.69 24.68v-.41L446.5-5.65h.72v.41L395.4 24.68h-.71zM394.69 20.9l45.98-26.55h1.42l-47.4 27.37v-.82zM394.69 17.53l40.14-23.18h1.43l-41.57 24v-.82zM394.69 14.16L429-5.65h1.42l-35.73 20.63v-.82zM394.69 10.79l28.47-16.44h1.42l-29.89 17.26v-.82zM394.69 7.42l22.63-13.07h1.43L394.69 8.24v-.82zM394.69 4.05l16.8-9.7h1.42L394.69 4.87v-.82zM394.69.68l10.96-6.33h1.42L394.69 1.5V.68z"/></g><g clip-path="url(#clip-path-24)"><path class="cls-9" d="M447.22 55h-.72l.72-.41V55zM440.67 55l6.55-3.78v.82L442.09 55h-1.42zM434.83 55l12.39-7.15v.82L436.25 55h-1.42zM429 55l18.22-10.52v.82l-16.8 9.7H429zM423.16 55l24.06-13.89v.83L424.58 55h-1.42zM417.32 55l29.9-17.26v.82L418.75 55h-1.43zM411.49 55l35.73-20.63v.83L412.91 55h-1.42zM405.65 55l41.57-24v.83L407.07 55h-1.42zM399.82 55l47.4-27.36v.82L401.24 55h-1.42zM394.69 55v-.41l51.81-29.91h.72v.41L395.4 55h-.71zM394.69 51.22l45.98-26.54h1.42l-47.4 27.36v-.82zM394.69 47.85l40.14-23.17h1.43l-41.57 23.99v-.82zM394.69 44.48L429 24.68h1.42L394.69 45.3v-.82zM394.69 41.11l28.47-16.43h1.42l-29.89 17.26v-.83zM394.69 37.74l22.63-13.06h1.43l-24.06 13.89v-.83zM394.69 34.38l16.8-9.7h1.42L394.69 35.2v-.82zM394.69 31l10.96-6.32h1.42l-12.38 7.15V31zM394.69 27.64l5.13-2.96h1.42l-6.55 3.78v-.82zM394.69 24.68h.71l-.71.41v-.41z"/></g><g clip-path="url(#clip-path-25)"><path class="cls-9" d="M447.22 85.33h-.72l.72-.41v.41zM440.67 85.33l6.55-3.78v.82l-5.13 2.96h-1.42zM434.83 85.33l12.39-7.15V79l-10.97 6.33h-1.42zM429 85.33l18.22-10.52v.82l-16.8 9.7H429zM423.16 85.33l24.06-13.89v.82l-22.64 13.07h-1.42zM417.32 85.33l29.9-17.26v.82l-28.47 16.44h-1.43zM411.49 85.33l35.73-20.63v.82l-34.31 19.81h-1.42zM405.65 85.33l41.57-24v.82l-40.15 23.18h-1.42zM399.82 85.33l47.4-27.37v.82l-45.98 26.55h-1.42zM394.69 85.33v-.41L446.5 55h.72v.41L395.4 85.33h-.71zM394.69 81.55L440.67 55h1.42l-47.4 27.37v-.82zM394.69 78.18L434.83 55h1.43l-41.57 24v-.82zM394.69 74.81L429 55h1.42l-35.73 20.63v-.82zM394.69 71.44L423.16 55h1.42l-29.89 17.26v-.82zM394.69 68.07L417.32 55h1.43l-24.06 13.89v-.82zM394.69 64.7l16.8-9.7h1.42l-18.22 10.52v-.82zM394.69 61.33L405.65 55h1.42l-12.38 7.15v-.82zM394.69 57.96l5.13-2.96h1.42l-6.55 3.78v-.82zM394.69 55h.71l-.71.41V55z"/></g><g clip-path="url(#clip-path-26)"><path class="cls-9" d="M447.22 115.66h-.72l.72-.42v.42zM440.67 115.66l6.55-3.79v.83l-5.13 2.96h-1.42zM434.83 115.66l12.39-7.16v.83l-10.97 6.33h-1.42zM429 115.66l18.22-10.52v.82l-16.8 9.7H429zM423.16 115.66l24.06-13.89v.82l-22.64 13.07h-1.42zM417.32 115.66l29.9-17.26v.82l-28.47 16.44h-1.43zM411.49 115.66l35.73-20.63v.82l-34.31 19.81h-1.42zM405.65 115.66l41.57-24v.82l-40.15 23.18h-1.42zM399.82 115.66l47.4-27.37v.82l-45.98 26.55h-1.42zM394.69 115.66v-.42l51.81-29.91h.72v.41l-51.82 29.92h-.71zM394.69 111.87l45.98-26.54h1.42l-47.4 27.37v-.83zM394.69 108.5l40.14-23.17h1.43l-41.57 24v-.83zM394.69 105.14L429 85.33h1.42l-35.73 20.63v-.82zM394.69 101.77l28.47-16.44h1.42l-29.89 17.26v-.82zM394.69 98.4l22.63-13.07h1.43l-24.06 13.89v-.82zM394.69 95.03l16.8-9.7h1.42l-18.22 10.52v-.82zM394.69 91.66l10.96-6.33h1.42l-12.38 7.15v-.82zM394.69 88.29l5.13-2.96h1.42l-6.55 3.78v-.82zM394.69 85.33h.71l-.71.41v-.41z"/></g><g clip-path="url(#clip-path-27)"><path class="cls-9" d="M447.22 145.98h-.72l.72-.41v.41zM440.67 145.98l6.55-3.78v.82l-5.13 2.96h-1.42zM434.83 145.98l12.39-7.15v.82l-10.97 6.33h-1.42zM429 145.98l18.22-10.52v.82l-16.8 9.7H429zM423.16 145.98l24.06-13.89v.82l-22.64 13.07h-1.42zM417.32 145.98l29.9-17.26v.82l-28.47 16.44h-1.43zM411.49 145.98l35.73-20.63v.82l-34.31 19.81h-1.42zM405.65 145.98l41.57-24v.82l-40.15 23.18h-1.42zM399.82 145.98l47.4-27.37v.83l-45.98 26.54h-1.42zM394.69 145.98v-.41l51.81-29.91h.72v.4l-51.82 29.92h-.71zM394.69 142.2l45.98-26.55h1.42l-47.4 27.37v-.82zM394.69 138.83l40.14-23.17h1.43l-41.57 23.99v-.82zM394.69 135.46l34.31-19.8h1.42l-35.73 20.62v-.82zM394.69 132.09l28.47-16.43h1.42l-29.89 17.25v-.82zM394.69 128.72l22.63-13.07h1.43l-24.06 13.89v-.82zM394.69 125.35l16.8-9.7h1.42l-18.22 10.52v-.82zM394.69 121.98l10.96-6.33h1.42l-12.38 7.16v-.83zM394.69 118.61l5.13-2.95h1.42l-6.55 3.78v-.83zM394.69 115.66h.71l-.71.41v-.41z"/></g><g clip-path="url(#clip-path-28)"><path class="cls-9" d="M447.22 176.31h-.72l.72-.41v.41zM440.67 176.31l6.55-3.78v.82l-5.13 2.96h-1.42zM434.83 176.31l12.39-7.15v.82l-10.97 6.33h-1.42zM429 176.31l18.22-10.52v.82l-16.8 9.7H429zM423.16 176.31l24.06-13.89v.82l-22.64 13.07h-1.42zM417.32 176.31l29.9-17.26v.82l-28.47 16.44h-1.43zM411.49 176.31l35.73-20.63v.82l-34.31 19.81h-1.42zM405.65 176.31l41.57-24v.82l-40.15 23.18h-1.42zM399.82 176.31l47.4-27.37v.82l-45.98 26.55h-1.42zM394.69 176.31v-.41l51.81-29.92h.72v.41l-51.82 29.92h-.71zM394.69 172.53l45.98-26.55h1.42l-47.4 27.37v-.82zM394.69 169.16l40.14-23.18h1.43l-41.57 24v-.82zM394.69 165.79L429 145.98h1.42l-35.73 20.63v-.82zM394.69 162.42l28.47-16.44h1.42l-29.89 17.26v-.82zM394.69 159.05l22.63-13.07h1.43l-24.06 13.89v-.82zM394.69 155.68l16.8-9.7h1.42l-18.22 10.52v-.82zM394.69 152.31l10.96-6.33h1.42l-12.38 7.15v-.82zM394.69 148.94l5.13-2.96h1.42l-6.55 3.78v-.82zM394.69 145.98h.71l-.71.41v-.41z"/></g><g clip-path="url(#clip-path-29)"><path class="cls-9" d="M447.22 206.63h-.72l.72-.41v.41zM440.67 206.63l6.55-3.78v.82l-5.13 2.96h-1.42zM434.83 206.63l12.39-7.15v.82l-10.97 6.33h-1.42zM429 206.63l18.22-10.52v.83l-16.8 9.69H429zM423.16 206.63l24.06-13.89v.82l-22.64 13.07h-1.42zM417.32 206.63l29.9-17.25v.81l-28.47 16.44h-1.43zM411.49 206.63L447.22 186v.83l-34.31 19.8h-1.42zM405.65 206.63l41.57-24v.83l-40.15 23.17h-1.42zM399.82 206.63l47.4-27.36v.82l-45.98 26.54h-1.42zM394.69 206.63v-.41l51.81-29.91h.72v.41l-51.82 29.91h-.71zM394.69 202.85l45.98-26.54h1.42l-47.4 27.36v-.82zM394.69 199.48l40.14-23.17h1.43l-41.57 23.99v-.82zM394.69 196.11l34.31-19.8h1.42l-35.73 20.63v-.83zM394.69 192.74l28.47-16.43h1.42l-29.89 17.25v-.82zM394.69 189.37l22.63-13.06h1.43l-24.06 13.89v-.83zM394.69 186l16.8-9.69h1.42l-18.22 10.52V186zM394.69 182.63l10.96-6.32h1.42l-12.38 7.15v-.83zM394.69 179.26l5.13-2.95h1.42l-6.55 3.78v-.83zM394.69 176.31h.71l-.71.41v-.41z"/></g><g clip-path="url(#clip-path-30)"><path class="cls-9" d="M447.22 236.96h-.72l.72-.41v.41zM440.67 236.96l6.55-3.78v.82l-5.13 2.96h-1.42zM434.83 236.96l12.39-7.15v.82l-10.97 6.33h-1.42zM429 236.96l18.22-10.52v.82l-16.8 9.7H429zM423.16 236.96l24.06-13.89v.82l-22.64 13.07h-1.42zM417.32 236.96l29.9-17.26v.82l-28.47 16.44h-1.43zM411.49 236.96l35.73-20.63v.82l-34.31 19.81h-1.42zM405.65 236.96l41.57-24v.82l-40.15 23.18h-1.42zM399.82 236.96l47.4-27.37v.82l-45.98 26.55h-1.42zM394.69 236.96v-.41l51.81-29.92h.72v.41l-51.82 29.92h-.71zM394.69 233.18l45.98-26.55h1.42L394.69 234v-.82zM394.69 229.81l40.14-23.18h1.43l-41.57 24v-.82zM394.69 226.44L429 206.63h1.42l-35.73 20.63v-.82zM394.69 223.07l28.47-16.44h1.42l-29.89 17.26v-.82zM394.69 219.7l22.63-13.07h1.43l-24.06 13.89v-.82zM394.69 216.33l16.8-9.7h1.42l-18.22 10.52v-.82zM394.69 212.96l10.96-6.33h1.42l-12.38 7.15v-.82zM394.69 209.59l5.13-2.96h1.42l-6.55 3.78v-.82zM394.69 206.63h.71l-.71.41v-.41z"/></g><g clip-path="url(#clip-path-31)"><path class="cls-9" d="M447.22 267.29h-.72l.72-.42v.42zM440.67 267.29l6.55-3.79v.83l-5.13 2.96h-1.42zM434.83 267.29l12.39-7.16v.83l-10.97 6.33h-1.42zM429 267.29l18.22-10.53v.83l-16.8 9.7H429zM423.16 267.29l24.06-13.89v.82l-22.64 13.07h-1.42zM417.32 267.29l29.9-17.26v.82l-28.47 16.44h-1.43zM411.49 267.29l35.73-20.63v.82l-34.31 19.81h-1.42zM405.65 267.29l41.57-24v.82l-40.15 23.18h-1.42zM399.82 267.29l47.4-27.37v.82l-45.98 26.55h-1.42zM394.69 267.29v-.42l51.81-29.91h.72v.41l-51.82 29.92h-.71zM394.69 263.5l45.98-26.54h1.42l-47.4 27.37v-.83zM394.69 260.13l40.14-23.17h1.43l-41.57 24v-.83zM394.69 256.76l34.31-19.8h1.42l-35.73 20.63v-.83zM394.69 253.4l28.47-16.44h1.42l-29.89 17.26v-.82zM394.69 250.03l22.63-13.07h1.43l-24.06 13.89v-.82zM394.69 246.66l16.8-9.7h1.42l-18.22 10.52v-.82zM394.69 243.29l10.96-6.33h1.42l-12.38 7.15v-.82zM394.69 239.92l5.13-2.96h1.42l-6.55 3.78v-.82zM394.69 236.96h.71l-.71.41v-.41z"/></g><g clip-path="url(#clip-path-32)"><path class="cls-9" d="M447.22 297.61h-.72l.72-.41v.41zM440.67 297.61l6.55-3.78v.82l-5.13 2.96h-1.42zM434.83 297.61l12.39-7.15v.82l-10.97 6.33h-1.42zM429 297.61l18.22-10.52v.82l-16.8 9.7H429zM423.16 297.61l24.06-13.89v.82l-22.64 13.07h-1.42zM417.32 297.61l29.9-17.26v.82l-28.47 16.44h-1.43zM411.49 297.61l35.73-20.63v.82l-34.31 19.81h-1.42zM405.65 297.61l41.57-24v.82l-40.15 23.18h-1.42zM399.82 297.61l47.4-27.37v.83l-45.98 26.54h-1.42zM394.69 297.61v-.41l51.81-29.91h.72v.4l-51.82 29.92h-.71zM394.69 293.83l45.98-26.55h1.42l-47.4 27.37v-.82zM394.69 290.46l40.14-23.17h1.43l-41.57 23.99v-.82zM394.69 287.09l34.31-19.8h1.42l-35.73 20.62v-.82zM394.69 283.72l28.47-16.43h1.42l-29.89 17.25v-.82zM394.69 280.35l22.63-13.06h1.43l-24.06 13.88v-.82zM394.69 276.98l16.8-9.7h1.42l-18.22 10.53v-.83zM394.69 273.61l10.96-6.33h1.42l-12.38 7.16v-.83zM394.69 270.24l5.13-2.95h1.42l-6.55 3.77v-.82zM394.69 267.29h.71l-.71.41v-.41z"/></g><g clip-path="url(#clip-path-33)"><path class="cls-9" d="M394.69 24.68h-.71l.71-.41v.41zM388.14 24.68l6.55-3.78v.82l-5.12 2.96h-1.43zM382.31 24.68l12.38-7.15v.82l-10.96 6.33h-1.42zM376.47 24.68l18.22-10.52v.82l-16.8 9.7h-1.42zM370.63 24.68l24.06-13.89v.82l-22.63 13.07h-1.43zM364.8 24.68l29.89-17.26v.82l-28.47 16.44h-1.42zM358.96 24.68l35.73-20.63v.82l-34.31 19.81h-1.42zM353.13 24.68l41.56-24v.82l-40.14 23.18h-1.42zM347.29 24.68l47.4-27.37v.82l-45.98 26.55h-1.42zM342.17 24.68v-.41l51.81-29.92h.71v.41l-51.81 29.92h-.71zM342.17 20.9l45.97-26.55h1.43l-47.4 27.37v-.82zM342.17 17.53l40.14-23.18h1.42l-41.56 24v-.82zM342.17 14.16l34.3-19.81h1.42l-35.72 20.63v-.82zM342.17 10.79l28.46-16.44h1.43l-29.89 17.26v-.82zM342.17 7.42L364.8-5.65h1.42L342.17 8.24v-.82zM342.17 4.05l16.79-9.7h1.43L342.17 4.87v-.82zM342.17.68l10.96-6.33h1.42L342.17 1.5V.68z"/></g><g clip-path="url(#clip-path-34)"><path class="cls-9" d="M394.69 55h-.71l.71-.41V55zM388.14 55l6.55-3.78v.82L389.57 55h-1.43zM382.31 55l12.38-7.15v.82L383.73 55h-1.42zM376.47 55l18.22-10.52v.82l-16.8 9.7h-1.42zM370.63 55l24.06-13.89v.83L372.06 55h-1.43zM364.8 55l29.89-17.26v.82L366.22 55h-1.42zM358.96 55l35.73-20.63v.83L360.38 55h-1.42zM353.13 55l41.56-24v.83L354.55 55h-1.42zM347.29 55l47.4-27.36v.82L348.71 55h-1.42zM342.17 55v-.41l51.81-29.91h.71v.41L342.88 55h-.71zM342.17 51.22l45.97-26.54h1.43l-47.4 27.36v-.82zM342.17 47.85l40.14-23.17h1.42l-41.56 23.99v-.82zM342.17 44.48l34.3-19.8h1.42L342.17 45.3v-.82zM342.17 41.11l28.46-16.43h1.43l-29.89 17.26v-.83zM342.17 37.74l22.63-13.06h1.42l-24.05 13.89v-.83zM342.17 34.38l16.79-9.7h1.43L342.17 35.2v-.82zM342.17 31l10.96-6.32h1.42l-12.38 7.15V31zM342.17 27.64l5.12-2.96h1.42l-6.54 3.78v-.82zM342.17 24.68h.71l-.71.41v-.41z"/></g><g clip-path="url(#clip-path-35)"><path class="cls-9" d="M394.69 85.33h-.71l.71-.41v.41zM388.14 85.33l6.55-3.78v.82l-5.12 2.96h-1.43zM382.31 85.33l12.38-7.15V79l-10.96 6.33h-1.42zM376.47 85.33l18.22-10.52v.82l-16.8 9.7h-1.42zM370.63 85.33l24.06-13.89v.82l-22.63 13.07h-1.43zM364.8 85.33l29.89-17.26v.82l-28.47 16.44h-1.42zM358.96 85.33l35.73-20.63v.82l-34.31 19.81h-1.42zM353.13 85.33l41.56-24v.82l-40.14 23.18h-1.42zM347.29 85.33l47.4-27.37v.82l-45.98 26.55h-1.42zM342.17 85.33v-.41L393.98 55h.71v.41l-51.81 29.92h-.71zM342.17 81.55L388.14 55h1.43l-47.4 27.37v-.82zM342.17 78.18L382.31 55h1.42l-41.56 24v-.82zM342.17 74.81L376.47 55h1.42l-35.72 20.63v-.82zM342.17 71.44L370.63 55h1.43l-29.89 17.26v-.82zM342.17 68.07L364.8 55h1.42l-24.05 13.89v-.82zM342.17 64.7l16.79-9.7h1.43l-18.22 10.52v-.82zM342.17 61.33L353.13 55h1.42l-12.38 7.15v-.82zM342.17 57.96l5.12-2.96h1.42l-6.54 3.78v-.82zM342.17 55h.71l-.71.41V55z"/></g><g clip-path="url(#clip-path-36)"><path class="cls-9" d="M394.69 115.66h-.71l.71-.42v.42zM388.14 115.66l6.55-3.79v.83l-5.12 2.96h-1.43zM382.31 115.66l12.38-7.16v.83l-10.96 6.33h-1.42zM376.47 115.66l18.22-10.52v.82l-16.8 9.7h-1.42zM370.63 115.66l24.06-13.89v.82l-22.63 13.07h-1.43zM364.8 115.66l29.89-17.26v.82l-28.47 16.44h-1.42zM358.96 115.66l35.73-20.63v.82l-34.31 19.81h-1.42zM353.13 115.66l41.56-24v.82l-40.14 23.18h-1.42zM347.29 115.66l47.4-27.37v.82l-45.98 26.55h-1.42zM342.17 115.66v-.42l51.81-29.91h.71v.41l-51.81 29.92h-.71zM342.17 111.87l45.97-26.54h1.43l-47.4 27.37v-.83zM342.17 108.5l40.14-23.17h1.42l-41.56 24v-.83zM342.17 105.14l34.3-19.81h1.42l-35.72 20.63v-.82zM342.17 101.77l28.46-16.44h1.43l-29.89 17.26v-.82zM342.17 98.4l22.63-13.07h1.42l-24.05 13.89v-.82zM342.17 95.03l16.79-9.7h1.43l-18.22 10.52v-.82zM342.17 91.66l10.96-6.33h1.42l-12.38 7.15v-.82zM342.17 88.29l5.12-2.96h1.42l-6.54 3.78v-.82zM342.17 85.33h.71l-.71.41v-.41z"/></g><g clip-path="url(#clip-path-37)"><path class="cls-9" d="M394.69 145.98h-.71l.71-.41v.41zM388.14 145.98l6.55-3.78v.82l-5.12 2.96h-1.43zM382.31 145.98l12.38-7.15v.82l-10.96 6.33h-1.42zM376.47 145.98l18.22-10.52v.82l-16.8 9.7h-1.42zM370.63 145.98l24.06-13.89v.82l-22.63 13.07h-1.43zM364.8 145.98l29.89-17.26v.82l-28.47 16.44h-1.42zM358.96 145.98l35.73-20.63v.82l-34.31 19.81h-1.42zM353.13 145.98l41.56-24v.82l-40.14 23.18h-1.42zM347.29 145.98l47.4-27.37v.83l-45.98 26.54h-1.42zM342.17 145.98v-.41l51.81-29.91h.71v.4l-51.81 29.92h-.71zM342.17 142.2l45.97-26.55h1.43l-47.4 27.37v-.82zM342.17 138.83l40.14-23.17h1.42l-41.56 23.99v-.82zM342.17 135.46l34.3-19.8h1.42l-35.72 20.62v-.82zM342.17 132.09l28.46-16.43h1.43l-29.89 17.25v-.82zM342.17 128.72l22.63-13.07h1.42l-24.05 13.89v-.82zM342.17 125.35l16.79-9.7h1.43l-18.22 10.52v-.82zM342.17 121.98l10.96-6.33h1.42l-12.38 7.16v-.83zM342.17 118.61l5.12-2.95h1.42l-6.54 3.78v-.83zM342.17 115.66h.71l-.71.41v-.41z"/></g><g clip-path="url(#clip-path-38)"><path class="cls-9" d="M394.69 176.31h-.71l.71-.41v.41zM388.14 176.31l6.55-3.78v.82l-5.12 2.96h-1.43zM382.31 176.31l12.38-7.15v.82l-10.96 6.33h-1.42zM376.47 176.31l18.22-10.52v.82l-16.8 9.7h-1.42zM370.63 176.31l24.06-13.89v.82l-22.63 13.07h-1.43zM364.8 176.31l29.89-17.26v.82l-28.47 16.44h-1.42zM358.96 176.31l35.73-20.63v.82l-34.31 19.81h-1.42zM353.13 176.31l41.56-24v.82l-40.14 23.18h-1.42zM347.29 176.31l47.4-27.37v.82l-45.98 26.55h-1.42zM342.17 176.31v-.41l51.81-29.92h.71v.41l-51.81 29.92h-.71zM342.17 172.53l45.97-26.55h1.43l-47.4 27.37v-.82zM342.17 169.16l40.14-23.18h1.42l-41.56 24v-.82zM342.17 165.79l34.3-19.81h1.42l-35.72 20.63v-.82zM342.17 162.42l28.46-16.44h1.43l-29.89 17.26v-.82zM342.17 159.05l22.63-13.07h1.42l-24.05 13.89v-.82zM342.17 155.68l16.79-9.7h1.43l-18.22 10.52v-.82zM342.17 152.31l10.96-6.33h1.42l-12.38 7.15v-.82zM342.17 148.94l5.12-2.96h1.42l-6.54 3.78v-.82zM342.17 145.98h.71l-.71.41v-.41z"/></g><g clip-path="url(#clip-path-39)"><path class="cls-9" d="M394.69 206.63h-.71l.71-.41v.41zM388.14 206.63l6.55-3.78v.82l-5.12 2.96h-1.43zM382.31 206.63l12.38-7.15v.82l-10.96 6.33h-1.42zM376.47 206.63l18.22-10.52v.83l-16.8 9.69h-1.42zM370.63 206.63l24.06-13.89v.82l-22.63 13.07h-1.43zM364.8 206.63l29.89-17.25v.81l-28.47 16.44h-1.42zM358.96 206.63L394.69 186v.83l-34.31 19.8h-1.42zM353.13 206.63l41.56-24v.83l-40.14 23.17h-1.42zM347.29 206.63l47.4-27.36v.82l-45.98 26.54h-1.42zM342.17 206.63v-.41l51.81-29.91h.71v.41l-51.81 29.91h-.71zM342.17 202.85l45.97-26.54h1.43l-47.4 27.36v-.82zM342.17 199.48l40.14-23.17h1.42l-41.56 23.99v-.82zM342.17 196.11l34.3-19.8h1.42l-35.72 20.63v-.83zM342.17 192.74l28.46-16.43h1.43l-29.89 17.25v-.82zM342.17 189.37l22.63-13.06h1.42l-24.05 13.89v-.83zM342.17 186l16.79-9.69h1.43l-18.22 10.52V186zM342.17 182.63l10.96-6.32h1.42l-12.38 7.15v-.83zM342.17 179.26l5.12-2.95h1.42l-6.54 3.78v-.83zM342.17 176.31h.71l-.71.41v-.41z"/></g><g clip-path="url(#clip-path-40)"><path class="cls-9" d="M394.69 236.96h-.71l.71-.41v.41zM388.14 236.96l6.55-3.78v.82l-5.12 2.96h-1.43zM382.31 236.96l12.38-7.15v.82l-10.96 6.33h-1.42zM376.47 236.96l18.22-10.52v.82l-16.8 9.7h-1.42zM370.63 236.96l24.06-13.89v.82l-22.63 13.07h-1.43zM364.8 236.96l29.89-17.26v.82l-28.47 16.44h-1.42zM358.96 236.96l35.73-20.63v.82l-34.31 19.81h-1.42zM353.13 236.96l41.56-24v.82l-40.14 23.18h-1.42zM347.29 236.96l47.4-27.37v.82l-45.98 26.55h-1.42zM342.17 236.96v-.41l51.81-29.92h.71v.41l-51.81 29.92h-.71zM342.17 233.18l45.97-26.55h1.43L342.17 234v-.82zM342.17 229.81l40.14-23.18h1.42l-41.56 24v-.82zM342.17 226.44l34.3-19.81h1.42l-35.72 20.63v-.82zM342.17 223.07l28.46-16.44h1.43l-29.89 17.26v-.82zM342.17 219.7l22.63-13.07h1.42l-24.05 13.89v-.82zM342.17 216.33l16.79-9.7h1.43l-18.22 10.52v-.82zM342.17 212.96l10.96-6.33h1.42l-12.38 7.15v-.82zM342.17 209.59l5.12-2.96h1.42l-6.54 3.78v-.82zM342.17 206.63h.71l-.71.41v-.41z"/></g><g clip-path="url(#clip-path-41)"><path class="cls-9" d="M394.69 267.29h-.71l.71-.42v.42zM388.14 267.29l6.55-3.79v.83l-5.12 2.96h-1.43zM382.31 267.29l12.38-7.16v.83l-10.96 6.33h-1.42zM376.47 267.29l18.22-10.53v.83l-16.8 9.7h-1.42zM370.63 267.29l24.06-13.89v.82l-22.63 13.07h-1.43zM364.8 267.29l29.89-17.26v.82l-28.47 16.44h-1.42zM358.96 267.29l35.73-20.63v.82l-34.31 19.81h-1.42zM353.13 267.29l41.56-24v.82l-40.14 23.18h-1.42zM347.29 267.29l47.4-27.37v.82l-45.98 26.55h-1.42zM342.17 267.29v-.42l51.81-29.91h.71v.41l-51.81 29.92h-.71zM342.17 263.5l45.97-26.54h1.43l-47.4 27.37v-.83zM342.17 260.13l40.14-23.17h1.42l-41.56 24v-.83zM342.17 256.76l34.3-19.8h1.42l-35.72 20.63v-.83zM342.17 253.4l28.46-16.44h1.43l-29.89 17.26v-.82zM342.17 250.03l22.63-13.07h1.42l-24.05 13.89v-.82zM342.17 246.66l16.79-9.7h1.43l-18.22 10.52v-.82zM342.17 243.29l10.96-6.33h1.42l-12.38 7.15v-.82zM342.17 239.92l5.12-2.96h1.42l-6.54 3.78v-.82zM342.17 236.96h.71l-.71.41v-.41z"/></g><g clip-path="url(#clip-path-42)"><path class="cls-9" d="M394.69 297.61h-.71l.71-.41v.41zM388.14 297.61l6.55-3.78v.82l-5.12 2.96h-1.43zM382.31 297.61l12.38-7.15v.82l-10.96 6.33h-1.42zM376.47 297.61l18.22-10.52v.82l-16.8 9.7h-1.42zM370.63 297.61l24.06-13.89v.82l-22.63 13.07h-1.43zM364.8 297.61l29.89-17.26v.82l-28.47 16.44h-1.42zM358.96 297.61l35.73-20.63v.82l-34.31 19.81h-1.42zM353.13 297.61l41.56-24v.82l-40.14 23.18h-1.42zM347.29 297.61l47.4-27.37v.83l-45.98 26.54h-1.42zM342.17 297.61v-.41l51.81-29.91h.71v.4l-51.81 29.92h-.71zM342.17 293.83l45.97-26.55h1.43l-47.4 27.37v-.82zM342.17 290.46l40.14-23.17h1.42l-41.56 23.99v-.82zM342.17 287.09l34.3-19.8h1.42l-35.72 20.62v-.82zM342.17 283.72l28.46-16.43h1.43l-29.89 17.25v-.82zM342.17 280.35l22.63-13.06h1.42l-24.05 13.88v-.82zM342.17 276.98l16.79-9.7h1.43l-18.22 10.53v-.83zM342.17 273.61l10.96-6.33h1.42l-12.38 7.16v-.83zM342.17 270.24l5.12-2.95h1.42l-6.54 3.77v-.82zM342.17 267.29h.71l-.71.41v-.41z"/></g><g clip-path="url(#clip-path-43)"><path class="cls-9" d="M342.17 24.68h-.72l.72-.41v.41zM335.62 24.68l6.55-3.78v.82l-5.13 2.96h-1.42zM329.78 24.68l12.39-7.15v.82l-10.97 6.33h-1.42zM323.94 24.68l18.23-10.52v.82l-16.8 9.7h-1.43zM318.11 24.68l24.06-13.89v.82l-22.64 13.07h-1.42zM312.27 24.68l29.89-17.26v.82l-28.47 16.44h-1.42zM306.44 24.68l35.72-20.63v.82l-34.3 19.81h-1.42zM300.6 24.68l41.56-24v.82l-40.14 23.18h-1.42zM294.76 24.68l47.4-27.37v.82l-45.97 26.55h-1.43zM289.64 24.68v-.41l51.81-29.92h.72v.41l-51.82 29.92h-.71zM289.64 20.9l45.98-26.55h1.42l-47.4 27.37v-.82zM289.64 17.53l40.14-23.18h1.42l-41.56 24v-.82zM289.64 14.16l34.3-19.81h1.43l-35.73 20.63v-.82zM289.64 10.79l28.47-16.44h1.42l-29.89 17.26v-.82zM289.64 7.42l22.63-13.07h1.42L289.64 8.24v-.82zM289.64 4.05l16.8-9.7h1.42L289.64 4.87v-.82zM289.64.68l10.96-6.33h1.42L289.64 1.5V.68z"/></g><g clip-path="url(#clip-path-44)"><path class="cls-9" d="M342.17 55h-.72l.72-.41V55zM335.62 55l6.55-3.78v.82L337.04 55h-1.42zM329.78 55l12.39-7.15v.82L331.2 55h-1.42zM323.94 55l18.23-10.52v.82l-16.8 9.7h-1.43zM318.11 55l24.06-13.89v.83L319.53 55h-1.42zM312.27 55l29.89-17.26v.82L313.69 55h-1.42zM306.44 55l35.72-20.63v.83L307.86 55h-1.42zM300.6 55l41.56-24v.83L302.02 55h-1.42zM294.76 55l47.4-27.36v.82L296.19 55h-1.43zM289.64 55v-.41l51.81-29.91h.72v.41L290.35 55h-.71zM289.64 51.22l45.98-26.54h1.42l-47.4 27.36v-.82zM289.64 47.85l40.14-23.17h1.42l-41.56 23.99v-.82zM289.64 44.48l34.3-19.8h1.43L289.64 45.3v-.82zM289.64 41.11l28.47-16.43h1.42l-29.89 17.26v-.83zM289.64 37.74l22.63-13.06h1.42l-24.05 13.89v-.83zM289.64 34.38l16.8-9.7h1.42L289.64 35.2v-.82zM289.64 31l10.96-6.32h1.42l-12.38 7.15V31zM289.64 27.64l5.12-2.96h1.43l-6.55 3.78v-.82zM289.64 24.68h.71l-.71.41v-.41z"/></g><g clip-path="url(#clip-path-45)"><path class="cls-9" d="M342.17 85.33h-.72l.72-.41v.41zM335.62 85.33l6.55-3.78v.82l-5.13 2.96h-1.42zM329.78 85.33l12.39-7.15V79l-10.97 6.33h-1.42zM323.94 85.33l18.23-10.52v.82l-16.8 9.7h-1.43zM318.11 85.33l24.06-13.89v.82l-22.64 13.07h-1.42zM312.27 85.33l29.89-17.26v.82l-28.47 16.44h-1.42zM306.44 85.33l35.72-20.63v.82l-34.3 19.81h-1.42zM300.6 85.33l41.56-24v.82l-40.14 23.18h-1.42zM294.76 85.33l47.4-27.37v.82l-45.97 26.55h-1.43zM289.64 85.33v-.41L341.45 55h.72v.41l-51.82 29.92h-.71zM289.64 81.55L335.62 55h1.42l-47.4 27.37v-.82zM289.64 78.18L329.78 55h1.42l-41.56 24v-.82zM289.64 74.81L323.94 55h1.43l-35.73 20.63v-.82zM289.64 71.44L318.11 55h1.42l-29.89 17.26v-.82zM289.64 68.07L312.27 55h1.42l-24.05 13.89v-.82zM289.64 64.7l16.8-9.7h1.42l-18.22 10.52v-.82zM289.64 61.33L300.6 55h1.42l-12.38 7.15v-.82zM289.64 57.96l5.12-2.96h1.43l-6.55 3.78v-.82zM289.64 55h.71l-.71.41V55z"/></g><g clip-path="url(#clip-path-46)"><path class="cls-9" d="M342.17 115.66h-.72l.72-.42v.42zM335.62 115.66l6.55-3.79v.83l-5.13 2.96h-1.42zM329.78 115.66l12.39-7.16v.83l-10.97 6.33h-1.42zM323.94 115.66l18.23-10.52v.82l-16.8 9.7h-1.43zM318.11 115.66l24.06-13.89v.82l-22.64 13.07h-1.42zM312.27 115.66l29.89-17.26v.82l-28.47 16.44h-1.42zM306.44 115.66l35.72-20.63v.82l-34.3 19.81h-1.42zM300.6 115.66l41.56-24v.82l-40.14 23.18h-1.42zM294.76 115.66l47.4-27.37v.82l-45.97 26.55h-1.43zM289.64 115.66v-.42l51.81-29.91h.72v.41l-51.82 29.92h-.71zM289.64 111.87l45.98-26.54h1.42l-47.4 27.37v-.83zM289.64 108.5l40.14-23.17h1.42l-41.56 24v-.83zM289.64 105.14l34.3-19.81h1.43l-35.73 20.63v-.82zM289.64 101.77l28.47-16.44h1.42l-29.89 17.26v-.82zM289.64 98.4l22.63-13.07h1.42l-24.05 13.89v-.82zM289.64 95.03l16.8-9.7h1.42l-18.22 10.52v-.82zM289.64 91.66l10.96-6.33h1.42l-12.38 7.15v-.82zM289.64 88.29l5.12-2.96h1.43l-6.55 3.78v-.82zM289.64 85.33h.71l-.71.41v-.41z"/></g><g clip-path="url(#clip-path-47)"><path class="cls-9" d="M342.17 145.98h-.72l.72-.41v.41zM335.62 145.98l6.55-3.78v.82l-5.13 2.96h-1.42zM329.78 145.98l12.39-7.15v.82l-10.97 6.33h-1.42zM323.94 145.98l18.23-10.52v.82l-16.8 9.7h-1.43zM318.11 145.98l24.06-13.89v.82l-22.64 13.07h-1.42zM312.27 145.98l29.89-17.26v.82l-28.47 16.44h-1.42zM306.44 145.98l35.72-20.63v.82l-34.3 19.81h-1.42zM300.6 145.98l41.56-24v.82l-40.14 23.18h-1.42zM294.76 145.98l47.4-27.37v.83l-45.97 26.54h-1.43zM289.64 145.98v-.41l51.81-29.91h.72v.4l-51.82 29.92h-.71zM289.64 142.2l45.98-26.55h1.42l-47.4 27.37v-.82zM289.64 138.83l40.14-23.17h1.42l-41.56 23.99v-.82zM289.64 135.46l34.3-19.8h1.43l-35.73 20.62v-.82zM289.64 132.09l28.47-16.43h1.42l-29.89 17.25v-.82zM289.64 128.72l22.63-13.07h1.42l-24.05 13.89v-.82zM289.64 125.35l16.8-9.7h1.42l-18.22 10.52v-.82zM289.64 121.98l10.96-6.33h1.42l-12.38 7.16v-.83zM289.64 118.61l5.12-2.95h1.43l-6.55 3.78v-.83zM289.64 115.66h.71l-.71.41v-.41z"/></g><g clip-path="url(#clip-path-48)"><path class="cls-9" d="M342.17 176.31h-.72l.72-.41v.41zM335.62 176.31l6.55-3.78v.82l-5.13 2.96h-1.42zM329.78 176.31l12.39-7.15v.82l-10.97 6.33h-1.42zM323.94 176.31l18.23-10.52v.82l-16.8 9.7h-1.43zM318.11 176.31l24.06-13.89v.82l-22.64 13.07h-1.42zM312.27 176.31l29.89-17.26v.82l-28.47 16.44h-1.42zM306.44 176.31l35.72-20.63v.82l-34.3 19.81h-1.42zM300.6 176.31l41.56-24v.82l-40.14 23.18h-1.42zM294.76 176.31l47.4-27.37v.82l-45.97 26.55h-1.43zM289.64 176.31v-.41l51.81-29.92h.72v.41l-51.82 29.92h-.71zM289.64 172.53l45.98-26.55h1.42l-47.4 27.37v-.82zM289.64 169.16l40.14-23.18h1.42l-41.56 24v-.82zM289.64 165.79l34.3-19.81h1.43l-35.73 20.63v-.82zM289.64 162.42l28.47-16.44h1.42l-29.89 17.26v-.82zM289.64 159.05l22.63-13.07h1.42l-24.05 13.89v-.82zM289.64 155.68l16.8-9.7h1.42l-18.22 10.52v-.82zM289.64 152.31l10.96-6.33h1.42l-12.38 7.15v-.82zM289.64 148.94l5.12-2.96h1.43l-6.55 3.78v-.82zM289.64 145.98h.71l-.71.41v-.41z"/></g><g clip-path="url(#clip-path-49)"><path class="cls-9" d="M342.17 206.63h-.72l.72-.41v.41zM335.62 206.63l6.55-3.78v.82l-5.13 2.96h-1.42zM329.78 206.63l12.39-7.15v.82l-10.97 6.33h-1.42zM323.94 206.63l18.23-10.52v.83l-16.8 9.69h-1.43zM318.11 206.63l24.06-13.89v.82l-22.64 13.07h-1.42zM312.27 206.63l29.89-17.25v.81l-28.47 16.44h-1.42zM306.44 206.63L342.16 186v.83l-34.3 19.8h-1.42zM300.6 206.63l41.56-24v.83l-40.14 23.17h-1.42zM294.76 206.63l47.4-27.36v.82l-45.97 26.54h-1.43zM289.64 206.63v-.41l51.81-29.91h.72v.41l-51.82 29.91h-.71zM289.64 202.85l45.98-26.54h1.42l-47.4 27.36v-.82zM289.64 199.48l40.14-23.17h1.42l-41.56 23.99v-.82zM289.64 196.11l34.3-19.8h1.43l-35.73 20.63v-.83zM289.64 192.74l28.47-16.43h1.42l-29.89 17.25v-.82zM289.64 189.37l22.63-13.06h1.42l-24.05 13.89v-.83zM289.64 186l16.8-9.69h1.42l-18.22 10.52V186zM289.64 182.63l10.96-6.32h1.42l-12.38 7.15v-.83zM289.64 179.26l5.12-2.95h1.43l-6.55 3.78v-.83zM289.64 176.31h.71l-.71.41v-.41z"/></g><g clip-path="url(#clip-path-50)"><path class="cls-9" d="M342.17 236.96h-.72l.72-.41v.41zM335.62 236.96l6.55-3.78v.82l-5.13 2.96h-1.42zM329.78 236.96l12.39-7.15v.82l-10.97 6.33h-1.42zM323.94 236.96l18.23-10.52v.82l-16.8 9.7h-1.43zM318.11 236.96l24.06-13.89v.82l-22.64 13.07h-1.42zM312.27 236.96l29.89-17.26v.82l-28.47 16.44h-1.42zM306.44 236.96l35.72-20.63v.82l-34.3 19.81h-1.42zM300.6 236.96l41.56-24v.82l-40.14 23.18h-1.42zM294.76 236.96l47.4-27.37v.82l-45.97 26.55h-1.43zM289.64 236.96v-.41l51.81-29.92h.72v.41l-51.82 29.92h-.71zM289.64 233.18l45.98-26.55h1.42L289.64 234v-.82zM289.64 229.81l40.14-23.18h1.42l-41.56 24v-.82zM289.64 226.44l34.3-19.81h1.43l-35.73 20.63v-.82zM289.64 223.07l28.47-16.44h1.42l-29.89 17.26v-.82zM289.64 219.7l22.63-13.07h1.42l-24.05 13.89v-.82zM289.64 216.33l16.8-9.7h1.42l-18.22 10.52v-.82zM289.64 212.96l10.96-6.33h1.42l-12.38 7.15v-.82zM289.64 209.59l5.12-2.96h1.43l-6.55 3.78v-.82zM289.64 206.63h.71l-.71.41v-.41z"/></g><g clip-path="url(#clip-path-51)"><path class="cls-9" d="M342.17 267.29h-.72l.72-.42v.42zM335.62 267.29l6.55-3.79v.83l-5.13 2.96h-1.42zM329.78 267.29l12.39-7.16v.83l-10.97 6.33h-1.42zM323.94 267.29l18.23-10.53v.83l-16.8 9.7h-1.43zM318.11 267.29l24.06-13.89v.82l-22.64 13.07h-1.42zM312.27 267.29l29.89-17.26v.82l-28.47 16.44h-1.42zM306.44 267.29l35.72-20.63v.82l-34.3 19.81h-1.42zM300.6 267.29l41.56-24v.82l-40.14 23.18h-1.42zM294.76 267.29l47.4-27.37v.82l-45.97 26.55h-1.43zM289.64 267.29v-.42l51.81-29.91h.72v.41l-51.82 29.92h-.71zM289.64 263.5l45.98-26.54h1.42l-47.4 27.37v-.83zM289.64 260.13l40.14-23.17h1.42l-41.56 24v-.83zM289.64 256.76l34.3-19.8h1.43l-35.73 20.63v-.83zM289.64 253.4l28.47-16.44h1.42l-29.89 17.26v-.82zM289.64 250.03l22.63-13.07h1.42l-24.05 13.89v-.82zM289.64 246.66l16.8-9.7h1.42l-18.22 10.52v-.82zM289.64 243.29l10.96-6.33h1.42l-12.38 7.15v-.82zM289.64 239.92l5.12-2.96h1.43l-6.55 3.78v-.82zM289.64 236.96h.71l-.71.41v-.41z"/></g><g clip-path="url(#clip-path-52)"><path class="cls-9" d="M342.17 297.61h-.72l.72-.41v.41zM335.62 297.61l6.55-3.78v.82l-5.13 2.96h-1.42zM329.78 297.61l12.39-7.15v.82l-10.97 6.33h-1.42zM323.94 297.61l18.23-10.52v.82l-16.8 9.7h-1.43zM318.11 297.61l24.06-13.89v.82l-22.64 13.07h-1.42zM312.27 297.61l29.89-17.26v.82l-28.47 16.44h-1.42zM306.44 297.61l35.72-20.63v.82l-34.3 19.81h-1.42zM300.6 297.61l41.56-24v.82l-40.14 23.18h-1.42zM294.76 297.61l47.4-27.37v.83l-45.97 26.54h-1.43zM289.64 297.61v-.41l51.81-29.91h.72v.4l-51.82 29.92h-.71zM289.64 293.83l45.98-26.55h1.42l-47.4 27.37v-.82zM289.64 290.46l40.14-23.17h1.42l-41.56 23.99v-.82zM289.64 287.09l34.3-19.8h1.43l-35.73 20.62v-.82zM289.64 283.72l28.47-16.43h1.42l-29.89 17.25v-.82zM289.64 280.35l22.63-13.06h1.42l-24.05 13.88v-.82zM289.64 276.98l16.8-9.7h1.42l-18.22 10.53v-.83zM289.64 273.61l10.96-6.33h1.42l-12.38 7.16v-.83zM289.64 270.24l5.12-2.95h1.43l-6.55 3.77v-.82zM289.64 267.29h.71l-.71.41v-.41z"/></g><g clip-path="url(#clip-path-53)"><path class="cls-9" d="M289.64 24.68h-.71l.71-.41v.41zM283.09 24.68l6.55-3.78v.82l-5.13 2.96h-1.42zM277.25 24.68l12.39-7.15v.82l-10.96 6.33h-1.43zM271.42 24.68l18.22-10.52v.82l-16.8 9.7h-1.42zM265.58 24.68l24.06-13.89v.82L267 24.68h-1.42zM259.75 24.68l29.89-17.26v.82l-28.47 16.44h-1.42zM253.91 24.68l35.73-20.63v.82l-34.31 19.81h-1.42zM248.07 24.68l41.57-24v.82L249.5 24.68h-1.43zM242.24 24.68l47.4-27.37v.82l-45.98 26.55h-1.42zM237.11 24.68v-.41l51.82-29.92h.71v.41l-51.82 29.92h-.71zM237.11 20.9l45.98-26.55h1.42l-47.4 27.37v-.82zM237.11 17.53l40.14-23.18h1.43l-41.57 24v-.82zM237.11 14.16l34.31-19.81h1.42l-35.73 20.63v-.82zM237.11 10.79l28.47-16.44H267l-29.89 17.26v-.82zM237.11 7.42l22.64-13.07h1.42L237.11 8.24v-.82zM237.11 4.05l16.8-9.7h1.42L237.11 4.87v-.82zM237.11.68l10.96-6.33h1.43L237.11 1.5V.68z"/></g><g clip-path="url(#clip-path-54)"><path class="cls-9" d="M289.64 55h-.71l.71-.41V55zM283.09 55l6.55-3.78v.82L284.51 55h-1.42zM277.25 55l12.39-7.15v.82L278.68 55h-1.43zM271.42 55l18.22-10.52v.82l-16.8 9.7h-1.42zM265.58 55l24.06-13.89v.83L267 55h-1.42zM259.75 55l29.89-17.26v.82L261.17 55h-1.42zM253.91 55l35.73-20.63v.83L255.33 55h-1.42zM248.07 55l41.57-24v.83L249.5 55h-1.43zM242.24 55l47.4-27.36v.82L243.66 55h-1.42zM237.11 55v-.41l51.82-29.91h.71v.41L237.82 55h-.71zM237.11 51.22l45.98-26.54h1.42l-47.4 27.36v-.82zM237.11 47.85l40.14-23.17h1.43l-41.57 23.99v-.82zM237.11 44.48l34.31-19.8h1.42L237.11 45.3v-.82zM237.11 41.11l28.47-16.43H267l-29.89 17.26v-.83zM237.11 37.74l22.64-13.06h1.42l-24.06 13.89v-.83zM237.11 34.38l16.8-9.7h1.42L237.11 35.2v-.82zM237.11 31l10.96-6.32h1.43l-12.39 7.15V31zM237.11 27.64l5.13-2.96h1.42l-6.55 3.78v-.82zM237.11 24.68h.71l-.71.41v-.41z"/></g><g clip-path="url(#clip-path-55)"><path class="cls-9" d="M289.64 85.33h-.71l.71-.41v.41zM283.09 85.33l6.55-3.78v.82l-5.13 2.96h-1.42zM277.25 85.33l12.39-7.15V79l-10.96 6.33h-1.43zM271.42 85.33l18.22-10.52v.82l-16.8 9.7h-1.42zM265.58 85.33l24.06-13.89v.82L267 85.33h-1.42zM259.75 85.33l29.89-17.26v.82l-28.47 16.44h-1.42zM253.91 85.33l35.73-20.63v.82l-34.31 19.81h-1.42zM248.07 85.33l41.57-24v.82L249.5 85.33h-1.43zM242.24 85.33l47.4-27.37v.82l-45.98 26.55h-1.42zM237.11 85.33v-.41L288.93 55h.71v.41l-51.82 29.92h-.71zM237.11 81.55L283.09 55h1.42l-47.4 27.37v-.82zM237.11 78.18L277.25 55h1.43l-41.57 24v-.82zM237.11 74.81L271.42 55h1.42l-35.73 20.63v-.82zM237.11 71.44L265.58 55H267l-29.89 17.26v-.82zM237.11 68.07L259.75 55h1.42l-24.06 13.89v-.82zM237.11 64.7l16.8-9.7h1.42l-18.22 10.52v-.82zM237.11 61.33L248.07 55h1.43l-12.39 7.15v-.82zM237.11 57.96l5.13-2.96h1.42l-6.55 3.78v-.82zM237.11 55h.71l-.71.41V55z"/></g><g clip-path="url(#clip-path-56)"><path class="cls-9" d="M289.64 115.66h-.71l.71-.42v.42zM283.09 115.66l6.55-3.79v.83l-5.13 2.96h-1.42zM277.25 115.66l12.39-7.16v.83l-10.96 6.33h-1.43zM271.42 115.66l18.22-10.52v.82l-16.8 9.7h-1.42zM265.58 115.66l24.06-13.89v.82L267 115.66h-1.42zM259.75 115.66l29.89-17.26v.82l-28.47 16.44h-1.42zM253.91 115.66l35.73-20.63v.82l-34.31 19.81h-1.42zM248.07 115.66l41.57-24v.82l-40.14 23.18h-1.43zM242.24 115.66l47.4-27.37v.82l-45.98 26.55h-1.42zM237.11 115.66v-.42l51.82-29.91h.71v.41l-51.82 29.92h-.71zM237.11 111.87l45.98-26.54h1.42l-47.4 27.37v-.83zM237.11 108.5l40.14-23.17h1.43l-41.57 24v-.83zM237.11 105.14l34.31-19.81h1.42l-35.73 20.63v-.82zM237.11 101.77l28.47-16.44H267l-29.89 17.26v-.82zM237.11 98.4l22.64-13.07h1.42l-24.06 13.89v-.82zM237.11 95.03l16.8-9.7h1.42l-18.22 10.52v-.82zM237.11 91.66l10.96-6.33h1.43l-12.39 7.15v-.82zM237.11 88.29l5.13-2.96h1.42l-6.55 3.78v-.82zM237.11 85.33h.71l-.71.41v-.41z"/></g><g clip-path="url(#clip-path-57)"><path class="cls-9" d="M289.64 145.98h-.71l.71-.41v.41zM283.09 145.98l6.55-3.78v.82l-5.13 2.96h-1.42zM277.25 145.98l12.39-7.15v.82l-10.96 6.33h-1.43zM271.42 145.98l18.22-10.52v.82l-16.8 9.7h-1.42zM265.58 145.98l24.06-13.89v.82L267 145.98h-1.42zM259.75 145.98l29.89-17.26v.82l-28.47 16.44h-1.42zM253.91 145.98l35.73-20.63v.82l-34.31 19.81h-1.42zM248.07 145.98l41.57-24v.82l-40.14 23.18h-1.43zM242.24 145.98l47.4-27.37v.83l-45.98 26.54h-1.42zM237.11 145.98v-.41l51.82-29.91h.71v.4l-51.82 29.92h-.71zM237.11 142.2l45.98-26.55h1.42l-47.4 27.37v-.82zM237.11 138.83l40.14-23.17h1.43l-41.57 23.99v-.82zM237.11 135.46l34.31-19.8h1.42l-35.73 20.62v-.82zM237.11 132.09l28.47-16.43H267l-29.89 17.25v-.82zM237.11 128.72l22.64-13.07h1.42l-24.06 13.89v-.82zM237.11 125.35l16.8-9.7h1.42l-18.22 10.52v-.82zM237.11 121.98l10.96-6.33h1.43l-12.39 7.16v-.83zM237.11 118.61l5.13-2.95h1.42l-6.55 3.78v-.83zM237.11 115.66h.71l-.71.41v-.41z"/></g><g clip-path="url(#clip-path-58)"><path class="cls-9" d="M289.64 176.31h-.71l.71-.41v.41zM283.09 176.31l6.55-3.78v.82l-5.13 2.96h-1.42zM277.25 176.31l12.39-7.15v.82l-10.96 6.33h-1.43zM271.42 176.31l18.22-10.52v.82l-16.8 9.7h-1.42zM265.58 176.31l24.06-13.89v.82L267 176.31h-1.42zM259.75 176.31l29.89-17.26v.82l-28.47 16.44h-1.42zM253.91 176.31l35.73-20.63v.82l-34.31 19.81h-1.42zM248.07 176.31l41.57-24v.82l-40.14 23.18h-1.43zM242.24 176.31l47.4-27.37v.82l-45.98 26.55h-1.42zM237.11 176.31v-.41l51.82-29.92h.71v.41l-51.82 29.92h-.71zM237.11 172.53l45.98-26.55h1.42l-47.4 27.37v-.82zM237.11 169.16l40.14-23.18h1.43l-41.57 24v-.82zM237.11 165.79l34.31-19.81h1.42l-35.73 20.63v-.82zM237.11 162.42l28.47-16.44H267l-29.89 17.26v-.82zM237.11 159.05l22.64-13.07h1.42l-24.06 13.89v-.82zM237.11 155.68l16.8-9.7h1.42l-18.22 10.52v-.82zM237.11 152.31l10.96-6.33h1.43l-12.39 7.15v-.82zM237.11 148.94l5.13-2.96h1.42l-6.55 3.78v-.82zM237.11 145.98h.71l-.71.41v-.41z"/></g><g clip-path="url(#clip-path-59)"><path class="cls-9" d="M289.64 206.63h-.71l.71-.41v.41zM283.09 206.63l6.55-3.78v.82l-5.13 2.96h-1.42zM277.25 206.63l12.39-7.15v.82l-10.96 6.33h-1.43zM271.42 206.63l18.22-10.52v.83l-16.8 9.69h-1.42zM265.58 206.63l24.06-13.89v.82L267 206.63h-1.42zM259.75 206.63l29.89-17.25v.81l-28.47 16.44h-1.42zM253.91 206.63L289.64 186v.83l-34.31 19.8h-1.42zM248.07 206.63l41.57-24v.83l-40.14 23.17h-1.43zM242.24 206.63l47.4-27.36v.82l-45.98 26.54h-1.42zM237.11 206.63v-.41l51.82-29.91h.71v.41l-51.82 29.91h-.71zM237.11 202.85l45.98-26.54h1.42l-47.4 27.36v-.82zM237.11 199.48l40.14-23.17h1.43l-41.57 23.99v-.82zM237.11 196.11l34.31-19.8h1.42l-35.73 20.63v-.83zM237.11 192.74l28.47-16.43H267l-29.89 17.25v-.82zM237.11 189.37l22.64-13.06h1.42l-24.06 13.89v-.83zM237.11 186l16.8-9.69h1.42l-18.22 10.52V186zM237.11 182.63l10.96-6.32h1.43l-12.39 7.15v-.83zM237.11 179.26l5.13-2.95h1.42l-6.55 3.78v-.83zM237.11 176.31h.71l-.71.41v-.41z"/></g><g clip-path="url(#clip-path-60)"><path class="cls-9" d="M289.64 236.96h-.71l.71-.41v.41zM283.09 236.96l6.55-3.78v.82l-5.13 2.96h-1.42zM277.25 236.96l12.39-7.15v.82l-10.96 6.33h-1.43zM271.42 236.96l18.22-10.52v.82l-16.8 9.7h-1.42zM265.58 236.96l24.06-13.89v.82L267 236.96h-1.42zM259.75 236.96l29.89-17.26v.82l-28.47 16.44h-1.42zM253.91 236.96l35.73-20.63v.82l-34.31 19.81h-1.42zM248.07 236.96l41.57-24v.82l-40.14 23.18h-1.43zM242.24 236.96l47.4-27.37v.82l-45.98 26.55h-1.42zM237.11 236.96v-.41l51.82-29.92h.71v.41l-51.82 29.92h-.71zM237.11 233.18l45.98-26.55h1.42L237.11 234v-.82zM237.11 229.81l40.14-23.18h1.43l-41.57 24v-.82zM237.11 226.44l34.31-19.81h1.42l-35.73 20.63v-.82zM237.11 223.07l28.47-16.44H267l-29.89 17.26v-.82zM237.11 219.7l22.64-13.07h1.42l-24.06 13.89v-.82zM237.11 216.33l16.8-9.7h1.42l-18.22 10.52v-.82zM237.11 212.96l10.96-6.33h1.43l-12.39 7.15v-.82zM237.11 209.59l5.13-2.96h1.42l-6.55 3.78v-.82zM237.11 206.63h.71l-.71.41v-.41z"/></g><g clip-path="url(#clip-path-61)"><path class="cls-9" d="M289.64 267.29h-.71l.71-.42v.42zM283.09 267.29l6.55-3.79v.83l-5.13 2.96h-1.42zM277.25 267.29l12.39-7.16v.83l-10.96 6.33h-1.43zM271.42 267.29l18.22-10.53v.83l-16.8 9.7h-1.42zM265.58 267.29l24.06-13.89v.82L267 267.29h-1.42zM259.75 267.29l29.89-17.26v.82l-28.47 16.44h-1.42zM253.91 267.29l35.73-20.63v.82l-34.31 19.81h-1.42zM248.07 267.29l41.57-24v.82l-40.14 23.18h-1.43zM242.24 267.29l47.4-27.37v.82l-45.98 26.55h-1.42zM237.11 267.29v-.42l51.82-29.91h.71v.41l-51.82 29.92h-.71zM237.11 263.5l45.98-26.54h1.42l-47.4 27.37v-.83zM237.11 260.13l40.14-23.17h1.43l-41.57 24v-.83zM237.11 256.76l34.31-19.8h1.42l-35.73 20.63v-.83zM237.11 253.4l28.47-16.44H267l-29.89 17.26v-.82zM237.11 250.03l22.64-13.07h1.42l-24.06 13.89v-.82zM237.11 246.66l16.8-9.7h1.42l-18.22 10.52v-.82zM237.11 243.29l10.96-6.33h1.43l-12.39 7.15v-.82zM237.11 239.92l5.13-2.96h1.42l-6.55 3.78v-.82zM237.11 236.96h.71l-.71.41v-.41z"/></g><g clip-path="url(#clip-path-62)"><path class="cls-9" d="M289.64 297.61h-.71l.71-.41v.41zM283.09 297.61l6.55-3.78v.82l-5.13 2.96h-1.42zM277.25 297.61l12.39-7.15v.82l-10.96 6.33h-1.43zM271.42 297.61l18.22-10.52v.82l-16.8 9.7h-1.42zM265.58 297.61l24.06-13.89v.82L267 297.61h-1.42zM259.75 297.61l29.89-17.26v.82l-28.47 16.44h-1.42zM253.91 297.61l35.73-20.63v.82l-34.31 19.81h-1.42zM248.07 297.61l41.57-24v.82l-40.14 23.18h-1.43zM242.24 297.61l47.4-27.37v.83l-45.98 26.54h-1.42zM237.11 297.61v-.41l51.82-29.91h.71v.4l-51.82 29.92h-.71zM237.11 293.83l45.98-26.55h1.42l-47.4 27.37v-.82zM237.11 290.46l40.14-23.17h1.43l-41.57 23.99v-.82zM237.11 287.09l34.31-19.8h1.42l-35.73 20.62v-.82zM237.11 283.72l28.47-16.43H267l-29.89 17.25v-.82zM237.11 280.35l22.64-13.06h1.42l-24.06 13.88v-.82zM237.11 276.98l16.8-9.7h1.42l-18.22 10.53v-.83zM237.11 273.61l10.96-6.33h1.43l-12.39 7.16v-.83zM237.11 270.24l5.13-2.95h1.42l-6.55 3.77v-.82zM237.11 267.29h.71l-.71.41v-.41z"/></g></g><path d="M183.2-54.5C289.89 7.09 376.16 156.44 375.8 279s-87.17 172.12-193.86 110.52S-11 178.58-10.68 55.91c.06-20.25 2.53-38.47 7-54.58l15.24-23L37-7l35 20.21 36.34 21 74.49 43c43.4 25.06 78.46 85.85 78.32 135.65s-35.44 70-78.83 44.92S103.85 172 104 122.11c.06-22.31 7.22-38.66 19-47.65l-35.83-20.7C79 66.56 74.32 83.85 74.26 105c-.19 68.7 48.12 152.43 108 187s108.47 6.77 108.66-61.92-48.17-152.46-108-187l-82.1-47.39-43.15-24.9L28-46.35l15.23-23 45.13 26.06L183 11.35C258.06 54.67 318.69 159.75 318.44 246s-61.27 121-136.31 77.7S46.45 175.33 46.69 89.1c.06-20.74 3.64-38.46 10.05-52.9L25.09 17.93C19.86 33.41 17 51.47 17 71.86 16.65 177 90.53 305 182 357.84s165.84 10.38 166.15-94.76S274.6 30 183.11-22.83l-99.59-57.5L59.65-94.1l15.24-23zm-.47 163.44c-28.13-16.24-51-3.19-51.1 29.13s22.64 71.77 50.77 88 51 3.21 51.11-29.19-22.65-71.69-50.78-87.94" fill="url(#Unnamed_Pattern-3)"/><path class="cls-6" d="M216.22 365.24c0-6.93-.32-13.95-.84-21-.16-2.13-.39-4.26-.59-6.39-.5-5.19-1.12-10.42-1.9-15.66-.32-2.21-.62-4.4-1-6.61-1.08-6.46-2.33-12.93-3.8-19.44-.18-.76-.29-1.51-.47-2.26-1.69-7.25-3.66-14.51-5.8-21.77-.61-2.1-1.31-4.17-2-6.26q-2.49-8-5.37-16c-.81-2.27-1.62-4.54-2.48-6.8q-3.39-9-7.21-17.91c-.55-1.25-1-2.5-1.56-3.75-.15-.32-.27-.66-.42-1a.14.14 0 0 0 0-.06q-2.17-4.92-4.51-9.81-2.33-4.89-4.76-9.74c-.85-1.69-1.73-3.38-2.59-5.07q-4.6-8.91-9.57-17.66c-.6-1.05-1.16-2.11-1.77-3.16q-5.77-9.95-12-19.57c-1-1.55-2.05-3.09-3.08-4.63q-5.46-8.25-11.24-16.2c-.81-1.1-1.57-2.22-2.38-3.31q-6.78-9.14-13.95-17.82c-1.14-1.38-2.29-2.73-3.45-4.09-1.81-2.15-3.58-4.33-5.42-6.43q-4.34-4.92-8.79-9.66l-.63-.7c-3.87-4.12-7.81-8.09-11.82-12l-.32-.32q-1.95-1.87-3.9-3.72c-.83-.8-1.64-1.58-2.49-2.37-4.32-4-8.72-7.85-13.17-11.59-1-.88-1.94-1.72-2.94-2.48l-.19-.15L61 57.5c-5.5-4.42-11.07-8.64-16.73-12.6-.73-.51-1.47-1-2.21-1.49l-.3-.2-.76-.49c-5.73-3.91-11.53-7.65-17.41-11L-84.7-30.84l-523.18 304 108.29 62.54c106.7 61.59 193 210.94 192.61 333.54-.15 55.26-17.87 95.62-47 117.7l-1 .75c-1.15.84-2.3 1.67-3.48 2.45-1.58 1.06-3.19 2.08-4.83 3l523.18-304c34.69-20.17 56.19-63 56.36-123.95"/><g clip-path="url(#clip-path-63)"><g clip-path="url(#clip-path-64)"><path class="cls-9" d="M79.53 55h-.71l.71-.41V55zM72.99 55l6.54-3.78v.82L74.41 55h-1.42zM67.15 55l12.38-7.15v.82L68.57 55h-1.42zM61.31 55l18.22-10.52v.82L62.74 55h-1.43zM55.48 55l24.05-13.89v.83L56.9 55h-1.42zM49.64 55l29.89-17.26v.82L51.06 55h-1.42zM43.81 55l35.72-20.63v.83L45.23 55h-1.42zM37.97 55l41.56-24v.83L39.39 55h-1.42zM32.13 55l47.4-27.36v.82L33.56 55h-1.43zM27.01 55v-.41l51.81-29.91h.71v.41L27.72 55h-.71zM27.01 51.22l45.98-26.54h1.42l-47.4 27.36v-.82zM27.01 47.85l40.14-23.17h1.42L27.01 48.67v-.82zM27.01 44.48l34.3-19.8h1.43L27.01 45.3v-.82zM27.01 41.11l28.47-16.43h1.42L27.01 41.94v-.83zM27.01 37.74l22.63-13.06h1.42L27.01 38.57v-.83zM27.01 34.38l16.8-9.7h1.42L27.01 35.2v-.82zM27.01 31l10.96-6.32h1.42l-12.38 7.15V31zM27.01 27.64l5.12-2.96h1.43l-6.55 3.78v-.82zM27.01 24.68h.71l-.71.41v-.41z"/></g><g clip-path="url(#clip-path-65)"><path class="cls-9" d="M79.53 85.33h-.71l.71-.41v.41zM72.99 85.33l6.54-3.78v.82l-5.12 2.96h-1.42zM67.15 85.33l12.38-7.15V79l-10.96 6.33h-1.42zM61.31 85.33l18.22-10.52v.82l-16.79 9.7h-1.43zM55.48 85.33l24.05-13.89v.82L56.9 85.33h-1.42zM49.64 85.33l29.89-17.26v.82L51.06 85.33h-1.42zM43.81 85.33L79.53 64.7v.82l-34.3 19.81h-1.42zM37.97 85.33l41.56-24v.82L39.39 85.33h-1.42zM32.13 85.33l47.4-27.37v.82L33.56 85.33h-1.43zM27.01 85.33v-.41L78.82 55h.71v.41L27.72 85.33h-.71zM27.01 81.55L72.99 55h1.42l-47.4 27.37v-.82zM27.01 78.18L67.15 55h1.42L27.01 79v-.82zM27.01 74.81L61.31 55h1.43L27.01 75.63v-.82zM27.01 71.44L55.48 55h1.42L27.01 72.26v-.82zM27.01 68.07L49.64 55h1.42L27.01 68.89v-.82zM27.01 64.7l16.8-9.7h1.42L27.01 65.52v-.82zM27.01 61.33L37.97 55h1.42l-12.38 7.15v-.82zM27.01 57.96L32.13 55h1.43l-6.55 3.78v-.82zM27.01 55h.71l-.71.41V55z"/></g><g clip-path="url(#clip-path-66)"><path class="cls-9" d="M79.53 115.66h-.71l.71-.42v.42zM72.99 115.66l6.54-3.79v.83l-5.12 2.96h-1.42zM67.15 115.66l12.38-7.16v.83l-10.96 6.33h-1.42zM61.31 115.66l18.22-10.52v.82l-16.79 9.7h-1.43zM55.48 115.66l24.05-13.89v.82L56.9 115.66h-1.42zM49.64 115.66L79.53 98.4v.82l-28.47 16.44h-1.42zM43.81 115.66l35.72-20.63v.82l-34.3 19.81h-1.42zM37.97 115.66l41.56-24v.82l-40.14 23.18h-1.42zM32.13 115.66l47.4-27.37v.82l-45.97 26.55h-1.43zM27.01 115.66v-.42l51.81-29.91h.71v.41l-51.81 29.92h-.71zM27.01 111.87l45.98-26.54h1.42l-47.4 27.37v-.83zM27.01 108.5l40.14-23.17h1.42l-41.56 24v-.83zM27.01 105.14l34.3-19.81h1.43l-35.73 20.63v-.82zM27.01 101.77l28.47-16.44h1.42l-29.89 17.26v-.82zM27.01 98.4l22.63-13.07h1.42L27.01 99.22v-.82zM27.01 95.03l16.8-9.7h1.42L27.01 95.85v-.82zM27.01 91.66l10.96-6.33h1.42l-12.38 7.15v-.82zM27.01 88.29l5.12-2.96h1.43l-6.55 3.78v-.82zM27.01 85.33h.71l-.71.41v-.41z"/></g><g clip-path="url(#clip-path-67)"><path class="cls-9" d="M79.53 145.98h-.71l.71-.41v.41zM72.99 145.98l6.54-3.78v.82l-5.12 2.96h-1.42zM67.15 145.98l12.38-7.15v.82l-10.96 6.33h-1.42zM61.31 145.98l18.22-10.52v.82l-16.79 9.7h-1.43zM55.48 145.98l24.05-13.89v.82L56.9 145.98h-1.42zM49.64 145.98l29.89-17.26v.82l-28.47 16.44h-1.42zM43.81 145.98l35.72-20.63v.82l-34.3 19.81h-1.42zM37.97 145.98l41.56-24v.82l-40.14 23.18h-1.42zM32.13 145.98l47.4-27.37v.83l-45.97 26.54h-1.43zM27.01 145.98v-.41l51.81-29.91h.71v.4l-51.81 29.92h-.71zM27.01 142.2l45.98-26.55h1.42l-47.4 27.37v-.82zM27.01 138.83l40.14-23.17h1.42l-41.56 23.99v-.82zM27.01 135.46l34.3-19.8h1.43l-35.73 20.62v-.82zM27.01 132.09l28.47-16.43h1.42l-29.89 17.25v-.82zM27.01 128.72l22.63-13.07h1.42l-24.05 13.89v-.82zM27.01 125.35l16.8-9.7h1.42l-18.22 10.52v-.82zM27.01 121.98l10.96-6.33h1.42l-12.38 7.16v-.83zM27.01 118.61l5.12-2.95h1.43l-6.55 3.78v-.83zM27.01 115.66h.71l-.71.41v-.41z"/></g><g clip-path="url(#clip-path-68)"><path class="cls-9" d="M79.53 176.31h-.71l.71-.41v.41zM72.99 176.31l6.54-3.78v.82l-5.12 2.96h-1.42zM67.15 176.31l12.38-7.15v.82l-10.96 6.33h-1.42zM61.31 176.31l18.22-10.52v.82l-16.79 9.7h-1.43zM55.48 176.31l24.05-13.89v.82L56.9 176.31h-1.42zM49.64 176.31l29.89-17.26v.82l-28.47 16.44h-1.42zM43.81 176.31l35.72-20.63v.82l-34.3 19.81h-1.42zM37.97 176.31l41.56-24v.82l-40.14 23.18h-1.42zM32.13 176.31l47.4-27.37v.82l-45.97 26.55h-1.43zM27.01 176.31v-.41l51.81-29.92h.71v.41l-51.81 29.92h-.71zM27.01 172.53l45.98-26.55h1.42l-47.4 27.37v-.82zM27.01 169.16l40.14-23.18h1.42l-41.56 24v-.82zM27.01 165.79l34.3-19.81h1.43l-35.73 20.63v-.82zM27.01 162.42l28.47-16.44h1.42l-29.89 17.26v-.82zM27.01 159.05l22.63-13.07h1.42l-24.05 13.89v-.82zM27.01 155.68l16.8-9.7h1.42L27.01 156.5v-.82zM27.01 152.31l10.96-6.33h1.42l-12.38 7.15v-.82zM27.01 148.94l5.12-2.96h1.43l-6.55 3.78v-.82zM27.01 145.98h.71l-.71.41v-.41z"/></g><g clip-path="url(#clip-path-69)"><path class="cls-9" d="M79.53 206.63h-.71l.71-.41v.41zM72.99 206.63l6.54-3.78v.82l-5.12 2.96h-1.42zM67.15 206.63l12.38-7.15v.82l-10.96 6.33h-1.42zM61.31 206.63l18.22-10.52v.83l-16.79 9.69h-1.43zM55.48 206.63l24.05-13.89v.82L56.9 206.63h-1.42zM49.64 206.63l29.89-17.25v.81l-28.47 16.44h-1.42zM43.81 206.63L79.53 186v.83l-34.3 19.8h-1.42zM37.97 206.63l41.56-24v.83l-40.14 23.17h-1.42zM32.13 206.63l47.4-27.36v.82l-45.97 26.54h-1.43zM27.01 206.63v-.41l51.81-29.91h.71v.41l-51.81 29.91h-.71zM27.01 202.85l45.98-26.54h1.42l-47.4 27.36v-.82zM27.01 199.48l40.14-23.17h1.42L27.01 200.3v-.82zM27.01 196.11l34.3-19.8h1.43l-35.73 20.63v-.83zM27.01 192.74l28.47-16.43h1.42l-29.89 17.25v-.82zM27.01 189.37l22.63-13.06h1.42L27.01 190.2v-.83zM27.01 186l16.8-9.69h1.42l-18.22 10.52V186zM27.01 182.63l10.96-6.32h1.42l-12.38 7.15v-.83zM27.01 179.26l5.12-2.95h1.43l-6.55 3.78v-.83zM27.01 176.31h.71l-.71.41v-.41z"/></g><g clip-path="url(#clip-path-70)"><path class="cls-9" d="M79.53 236.96h-.71l.71-.41v.41zM72.99 236.96l6.54-3.78v.82l-5.12 2.96h-1.42zM67.15 236.96l12.38-7.15v.82l-10.96 6.33h-1.42zM61.31 236.96l18.22-10.52v.82l-16.79 9.7h-1.43zM55.48 236.96l24.05-13.89v.82L56.9 236.96h-1.42zM49.64 236.96l29.89-17.26v.82l-28.47 16.44h-1.42zM43.81 236.96l35.72-20.63v.82l-34.3 19.81h-1.42zM37.97 236.96l41.56-24v.82l-40.14 23.18h-1.42zM32.13 236.96l47.4-27.37v.82l-45.97 26.55h-1.43zM27.01 236.96v-.41l51.81-29.92h.71v.41l-51.81 29.92h-.71zM27.01 233.18l45.98-26.55h1.42L27.01 234v-.82zM27.01 229.81l40.14-23.18h1.42l-41.56 24v-.82zM27.01 226.44l34.3-19.81h1.43l-35.73 20.63v-.82zM27.01 223.07l28.47-16.44h1.42l-29.89 17.26v-.82zM27.01 219.7l22.63-13.07h1.42l-24.05 13.89v-.82zM27.01 216.33l16.8-9.7h1.42l-18.22 10.52v-.82zM27.01 212.96l10.96-6.33h1.42l-12.38 7.15v-.82zM27.01 209.59l5.12-2.96h1.43l-6.55 3.78v-.82zM27.01 206.63h.71l-.71.41v-.41z"/></g><g clip-path="url(#clip-path-71)"><path class="cls-9" d="M79.53 267.29h-.71l.71-.42v.42zM72.99 267.29l6.54-3.79v.83l-5.12 2.96h-1.42zM67.15 267.29l12.38-7.16v.83l-10.96 6.33h-1.42zM61.31 267.29l18.22-10.53v.83l-16.79 9.7h-1.43zM55.48 267.29l24.05-13.89v.82L56.9 267.29h-1.42zM49.64 267.29l29.89-17.26v.82l-28.47 16.44h-1.42zM43.81 267.29l35.72-20.63v.82l-34.3 19.81h-1.42zM37.97 267.29l41.56-24v.82l-40.14 23.18h-1.42zM32.13 267.29l47.4-27.37v.82l-45.97 26.55h-1.43zM27.01 267.29v-.42l51.81-29.91h.71v.41l-51.81 29.92h-.71zM27.01 263.5l45.98-26.54h1.42l-47.4 27.37v-.83zM27.01 260.13l40.14-23.17h1.42l-41.56 24v-.83zM27.01 256.76l34.3-19.8h1.43l-35.73 20.63v-.83zM27.01 253.4l28.47-16.44h1.42l-29.89 17.26v-.82zM27.01 250.03l22.63-13.07h1.42l-24.05 13.89v-.82zM27.01 246.66l16.8-9.7h1.42l-18.22 10.52v-.82zM27.01 243.29l10.96-6.33h1.42l-12.38 7.15v-.82zM27.01 239.92l5.12-2.96h1.43l-6.55 3.78v-.82zM27.01 236.96h.71l-.71.41v-.41z"/></g><g clip-path="url(#clip-path-72)"><path class="cls-9" d="M79.53 297.61h-.71l.71-.41v.41zM72.99 297.61l6.54-3.78v.82l-5.12 2.96h-1.42zM67.15 297.61l12.38-7.15v.82l-10.96 6.33h-1.42zM61.31 297.61l18.22-10.52v.82l-16.79 9.7h-1.43zM55.48 297.61l24.05-13.89v.82L56.9 297.61h-1.42zM49.64 297.61l29.89-17.26v.82l-28.47 16.44h-1.42zM43.81 297.61l35.72-20.63v.82l-34.3 19.81h-1.42zM37.97 297.61l41.56-24v.82l-40.14 23.18h-1.42zM32.13 297.61l47.4-27.37v.83l-45.97 26.54h-1.43zM27.01 297.61v-.41l51.81-29.91h.71v.4l-51.81 29.92h-.71zM27.01 293.83l45.98-26.55h1.42l-47.4 27.37v-.82zM27.01 290.46l40.14-23.17h1.42l-41.56 23.99v-.82zM27.01 287.09l34.3-19.8h1.43l-35.73 20.62v-.82zM27.01 283.72l28.47-16.43h1.42l-29.89 17.25v-.82zM27.01 280.35l22.63-13.06h1.42l-24.05 13.88v-.82zM27.01 276.98l16.8-9.7h1.42l-18.22 10.53v-.83zM27.01 273.61l10.96-6.33h1.42l-12.38 7.16v-.83zM27.01 270.24l5.12-2.95h1.43l-6.55 3.77v-.82zM27.01 267.29h.71l-.71.41v-.41z"/></g><g clip-path="url(#clip-path-73)"><path class="cls-9" d="M27.01 327.94v-.42l51.81-29.91h.71v.41l-51.81 29.92h-.71zM27.01 324.16l45.98-26.55h1.42l-47.4 27.37v-.82zM27.01 320.79l40.14-23.18h1.42l-41.56 24v-.82zM27.01 317.42l34.3-19.81h1.43l-35.73 20.63v-.82zM27.01 314.05l28.47-16.44h1.42l-29.89 17.26v-.82zM27.01 310.68l22.63-13.07h1.42L27.01 311.5v-.82zM27.01 307.31l16.8-9.7h1.42l-18.22 10.52v-.82zM27.01 303.94l10.96-6.33h1.42l-12.38 7.15v-.82zM27.01 300.57l5.12-2.96h1.43l-6.55 3.78v-.82zM27.01 297.61h.71l-.71.41v-.41z"/></g><g clip-path="url(#clip-path-74)"><path class="cls-9" d="M27.01 55h-.71l.71-.41V55zM20.46 55l6.55-3.78v.82L21.88 55h-1.42zM14.62 55l12.39-7.15v.82L16.05 55h-1.43zM8.79 55l18.22-10.52v.82L10.21 55H8.79zM2.95 55l24.06-13.89v.83L4.38 55H2.95zM-2.88 55l29.89-17.26v.82L-1.46 55h-1.42zM-8.72 55l35.73-20.63v.83L-7.3 55h-1.42zM-14.56 55l41.57-24v.83L-13.13 55h-1.43zM-20.39 55l47.4-27.36v.82L-18.97 55h-1.42zM-25.52 55v-.41L26.3 24.68h.71v.41L-24.81 55h-.71zM-25.52 51.22l45.98-26.54h1.43l-47.41 27.36v-.82zM-25.52 47.85l40.14-23.17h1.43l-41.57 23.99v-.82zM-25.52 44.48l34.31-19.8h1.42L-25.52 45.3v-.82zM-25.52 41.11L2.95 24.68h1.42l-29.89 17.26v-.83z"/></g><g clip-path="url(#clip-path-75)"><path class="cls-9" d="M27.01 85.33h-.71l.71-.41v.41zM20.46 85.33l6.55-3.78v.82l-5.13 2.96h-1.42zM14.62 85.33l12.39-7.15V79l-10.96 6.33h-1.43zM8.79 85.33l18.22-10.52v.82l-16.8 9.7H8.79zM2.95 85.33l24.06-13.89v.82L4.38 85.33H2.95zM-2.88 85.33l29.89-17.26v.82L-1.46 85.33h-1.42zM-8.72 85.33L27.01 64.7v.82L-7.3 85.33h-1.42zM-14.56 85.33l41.57-24v.82l-40.14 23.18h-1.43zM-20.39 85.33l47.4-27.37v.82l-45.98 26.55h-1.42zM-25.52 85.33v-.41L26.3 55h.71v.41l-51.82 29.92h-.71zM-25.52 81.55L20.46 55h1.43l-47.41 27.37v-.82zM-25.52 78.18L14.62 55h1.43l-41.57 24v-.82zM-25.52 74.81L8.79 55h1.42l-35.73 20.63v-.82zM-25.52 71.44L2.95 55h1.42l-29.89 17.26v-.82z"/></g><g clip-path="url(#clip-path-76)"><path class="cls-9" d="M27.01 115.66h-.71l.71-.42v.42zM20.46 115.66l6.55-3.79v.83l-5.13 2.96h-1.42zM14.62 115.66l12.39-7.16v.83l-10.96 6.33h-1.43zM8.79 115.66l18.22-10.52v.82l-16.8 9.7H8.79zM2.95 115.66l24.06-13.89v.82L4.38 115.66H2.95zM-2.88 115.66L27.01 98.4v.82l-28.47 16.44h-1.42zM-8.72 115.66l35.73-20.63v.82L-7.3 115.66h-1.42zM-14.56 115.66l41.57-24v.82l-40.14 23.18h-1.43zM-20.39 115.66l47.4-27.37v.82l-45.98 26.55h-1.42zM-25.52 115.66v-.42L26.3 85.33h.71v.41l-51.82 29.92h-.71zM-25.52 111.87l45.98-26.54h1.43l-47.41 27.37v-.83zM-25.52 108.5l40.14-23.17h1.43l-41.57 24v-.83zM-25.52 105.14L8.79 85.33h1.42l-35.73 20.63v-.82zM-25.52 101.77L2.95 85.33h1.42l-29.89 17.26v-.82z"/></g><g clip-path="url(#clip-path-77)"><path class="cls-9" d="M27.01 145.98h-.71l.71-.41v.41zM20.46 145.98l6.55-3.78v.82l-5.13 2.96h-1.42zM14.62 145.98l12.39-7.15v.82l-10.96 6.33h-1.43zM8.79 145.98l18.22-10.52v.82l-16.8 9.7H8.79zM2.95 145.98l24.06-13.89v.82L4.38 145.98H2.95zM-2.88 145.98l29.89-17.26v.82l-28.47 16.44h-1.42zM-8.72 145.98l35.73-20.63v.82L-7.3 145.98h-1.42zM-14.56 145.98l41.57-24v.82l-40.14 23.18h-1.43zM-20.39 145.98l47.4-27.37v.83l-45.98 26.54h-1.42zM-25.52 145.98v-.41l51.82-29.91h.71v.4l-51.82 29.92h-.71zM-25.52 142.2l45.98-26.55h1.43l-47.41 27.37v-.82zM-25.52 138.83l40.14-23.17h1.43l-41.57 23.99v-.82zM-25.52 135.46l34.31-19.8h1.42l-35.73 20.62v-.82zM-25.52 132.09l28.47-16.43h1.42l-29.89 17.25v-.82z"/></g><g clip-path="url(#clip-path-78)"><path class="cls-9" d="M27.01 176.31h-.71l.71-.41v.41zM20.46 176.31l6.55-3.78v.82l-5.13 2.96h-1.42zM14.62 176.31l12.39-7.15v.82l-10.96 6.33h-1.43zM8.79 176.31l18.22-10.52v.82l-16.8 9.7H8.79zM2.95 176.31l24.06-13.89v.82L4.38 176.31H2.95zM-2.88 176.31l29.89-17.26v.82l-28.47 16.44h-1.42zM-8.72 176.31l35.73-20.63v.82L-7.3 176.31h-1.42zM-14.56 176.31l41.57-24v.82l-40.14 23.18h-1.43zM-20.39 176.31l47.4-27.37v.82l-45.98 26.55h-1.42zM-25.52 176.31v-.41l51.82-29.92h.71v.41l-51.82 29.92h-.71zM-25.52 172.53l45.98-26.55h1.43l-47.41 27.37v-.82zM-25.52 169.16l40.14-23.18h1.43l-41.57 24v-.82zM-25.52 165.79l34.31-19.81h1.42l-35.73 20.63v-.82zM-25.52 162.42l28.47-16.44h1.42l-29.89 17.26v-.82z"/></g><g clip-path="url(#clip-path-79)"><path class="cls-9" d="M27.01 206.63h-.71l.71-.41v.41zM20.46 206.63l6.55-3.78v.82l-5.13 2.96h-1.42zM14.62 206.63l12.39-7.15v.82l-10.96 6.33h-1.43zM8.79 206.63l18.22-10.52v.83l-16.8 9.69H8.79zM2.95 206.63l24.06-13.89v.82L4.38 206.63H2.95zM-2.88 206.63l29.89-17.25v.81l-28.47 16.44h-1.42zM-8.72 206.63L27.01 186v.83l-34.31 19.8h-1.42zM-14.56 206.63l41.57-24v.83l-40.14 23.17h-1.43zM-20.39 206.63l47.4-27.36v.82l-45.98 26.54h-1.42zM-25.52 206.63v-.41l51.82-29.91h.71v.41l-51.82 29.91h-.71zM-25.52 202.85l45.98-26.54h1.43l-47.41 27.36v-.82zM-25.52 199.48l40.14-23.17h1.43l-41.57 23.99v-.82zM-25.52 196.11l34.31-19.8h1.42l-35.73 20.63v-.83zM-25.52 192.74l28.47-16.43h1.42l-29.89 17.25v-.82z"/></g><g clip-path="url(#clip-path-80)"><path class="cls-9" d="M27.01 236.96h-.71l.71-.41v.41zM20.46 236.96l6.55-3.78v.82l-5.13 2.96h-1.42zM14.62 236.96l12.39-7.15v.82l-10.96 6.33h-1.43zM8.79 236.96l18.22-10.52v.82l-16.8 9.7H8.79zM2.95 236.96l24.06-13.89v.82L4.38 236.96H2.95zM-2.88 236.96l29.89-17.26v.82l-28.47 16.44h-1.42zM-8.72 236.96l35.73-20.63v.82L-7.3 236.96h-1.42zM-14.56 236.96l41.57-24v.82l-40.14 23.18h-1.43zM-20.39 236.96l47.4-27.37v.82l-45.98 26.55h-1.42zM-25.52 236.96v-.41l51.82-29.92h.71v.41l-51.82 29.92h-.71zM-25.52 233.18l45.98-26.55h1.43L-25.52 234v-.82zM-25.52 229.81l40.14-23.18h1.43l-41.57 24v-.82zM-25.52 226.44l34.31-19.81h1.42l-35.73 20.63v-.82zM-25.52 223.07l28.47-16.44h1.42l-29.89 17.26v-.82z"/></g><g clip-path="url(#clip-path-81)"><path class="cls-9" d="M27.01 267.29h-.71l.71-.42v.42zM20.46 267.29l6.55-3.79v.83l-5.13 2.96h-1.42zM14.62 267.29l12.39-7.16v.83l-10.96 6.33h-1.43zM8.79 267.29l18.22-10.53v.83l-16.8 9.7H8.79zM2.95 267.29l24.06-13.89v.82L4.38 267.29H2.95zM-2.88 267.29l29.89-17.26v.82l-28.47 16.44h-1.42zM-8.72 267.29l35.73-20.63v.82L-7.3 267.29h-1.42zM-14.56 267.29l41.57-24v.82l-40.14 23.18h-1.43zM-20.39 267.29l47.4-27.37v.82l-45.98 26.55h-1.42zM-25.52 267.29v-.42l51.82-29.91h.71v.41l-51.82 29.92h-.71zM-25.52 263.5l45.98-26.54h1.43l-47.41 27.37v-.83zM-25.52 260.13l40.14-23.17h1.43l-41.57 24v-.83zM-25.52 256.76l34.31-19.8h1.42l-35.73 20.63v-.83zM-25.52 253.4l28.47-16.44h1.42l-29.89 17.26v-.82z"/></g><g clip-path="url(#clip-path-82)"><path class="cls-9" d="M27.01 297.61h-.71l.71-.41v.41zM20.46 297.61l6.55-3.78v.82l-5.13 2.96h-1.42zM14.62 297.61l12.39-7.15v.82l-10.96 6.33h-1.43zM8.79 297.61l18.22-10.52v.82l-16.8 9.7H8.79zM2.95 297.61l24.06-13.89v.82L4.38 297.61H2.95zM-2.88 297.61l29.89-17.26v.82l-28.47 16.44h-1.42zM-8.72 297.61l35.73-20.63v.82L-7.3 297.61h-1.42zM-14.56 297.61l41.57-24v.82l-40.14 23.18h-1.43zM-20.39 297.61l47.4-27.37v.83l-45.98 26.54h-1.42zM-25.52 297.61v-.41l51.82-29.91h.71v.4l-51.82 29.92h-.71zM-25.52 293.83l45.98-26.55h1.43l-47.41 27.37v-.82zM-25.52 290.46l40.14-23.17h1.43l-41.57 23.99v-.82zM-25.52 287.09l34.31-19.8h1.42l-35.73 20.62v-.82zM-25.52 283.72l28.47-16.43h1.42l-29.89 17.25v-.82z"/></g><g clip-path="url(#clip-path-83)"><path class="cls-9" d="M-25.52 327.94v-.42l51.82-29.91h.71v.41l-51.82 29.92h-.71zM-25.52 324.16l45.98-26.55h1.43l-47.41 27.37v-.82zM-25.52 320.79l40.14-23.18h1.43l-41.57 24v-.82zM-25.52 317.42l34.31-19.81h1.42l-35.73 20.63v-.82zM-25.52 314.05l28.47-16.44h1.42l-29.89 17.26v-.82z"/></g></g><path class="cls-6" d="M635.72 613.74c0-6.92-.31-14-.84-21-.16-2.12-.39-4.25-.59-6.39-.5-5.19-1.12-10.41-1.9-15.65-.32-2.22-.62-4.4-1-6.62-1.08-6.45-2.33-12.93-3.8-19.44-.17-.75-.28-1.5-.47-2.26-1.69-7.25-3.66-14.51-5.8-21.76-.61-2.1-1.31-4.18-2-6.27q-2.49-8-5.37-16c-.81-2.28-1.62-4.55-2.48-6.8q-3.39-9-7.21-17.92c-.55-1.25-1-2.5-1.55-3.75-.16-.32-.28-.65-.42-1v-.05q-2.17-4.94-4.5-9.81-2.32-4.89-4.76-9.75c-.85-1.69-1.73-3.37-2.59-5.06-3.06-5.94-6.25-11.85-9.57-17.67-.59-1-1.16-2.1-1.76-3.15q-5.79-10-12-19.57c-1-1.56-2-3.1-3.08-4.64q-5.46-8.24-11.24-16.19c-.8-1.1-1.57-2.22-2.38-3.31q-6.78-9.14-14-17.82a225.76 225.76 0 0 0-3.45-4.09c-1.8-2.16-3.58-4.34-5.42-6.44-2.88-3.27-5.82-6.5-8.78-9.65l-.63-.71c-3.87-4.11-7.82-8.08-11.82-12l-.33-.32c-1.29-1.25-2.59-2.5-3.9-3.73-.82-.79-1.64-1.58-2.48-2.36-4.33-4-8.73-7.86-13.18-11.6-1-.81-1.93-1.66-2.91-2.46l-.19-.16c-.94-.77-1.88-1.53-2.84-2.29q-8.24-6.64-16.73-12.61c-.72-.51-1.47-1-2.21-1.49l-.3-.2-.72-.49c-5.73-3.91-11.53-7.64-17.41-11L334.8 217.67l-523.18 304 108.29 62.53c106.7 61.59 193 210.94 192.61 333.55-.15 55.25-17.87 95.61-47 117.69l-1 .76c-1.14.84-2.3 1.66-3.48 2.45q-2.37 1.59-4.83 3l523.18-304c34.69-20.16 56.19-63 56.36-124"/><g clip-path="url(#clip-path-84)"><g clip-path="url(#clip-path-85)"><path class="cls-9" d="M51.86 327.94v-.42L.05 297.61h-.71v.41l51.81 29.92h.71zM51.86 324.16L5.89 297.61H4.46l47.4 27.37v-.82zM51.86 320.79l-40.14-23.18H10.3l41.56 24v-.82zM51.86 317.42l-34.3-19.81h-1.42l35.72 20.63v-.82zM51.86 314.05l-28.47-16.44h-1.42l29.89 17.26v-.82zM51.86 310.68l-22.63-13.07h-1.42l24.05 13.89v-.82zM51.86 307.31l-16.79-9.7h-1.43l18.22 10.52v-.82zM51.86 303.94l-10.96-6.33h-1.42l12.38 7.15v-.82zM51.86 300.57l-5.12-2.96h-1.42l6.54 3.78v-.82zM51.86 297.61h-.71l.71.41v-.41z"/></g><g clip-path="url(#clip-path-86)"><path class="cls-9" d="M104.39 327.94v-.42l-51.81-29.91h-.72v.41l51.82 29.92h.71zM104.39 324.16l-45.98-26.55h-1.42l47.4 27.37v-.82zM104.39 320.79l-40.14-23.18h-1.42l41.56 24v-.82zM104.39 317.42l-34.31-19.81h-1.42l35.73 20.63v-.82zM104.39 314.05l-28.47-16.44H74.5l29.89 17.26v-.82zM104.39 310.68l-22.63-13.07h-1.43l24.06 13.89v-.82zM104.39 307.31l-16.8-9.7h-1.42l18.22 10.52v-.82zM104.39 303.94l-10.96-6.33h-1.42l12.38 7.15v-.82zM104.39 300.57l-5.12-2.96h-1.43l6.55 3.78v-.82zM104.39 297.61h-.71l.71.41v-.41z"/></g><g clip-path="url(#clip-path-87)"><path class="cls-9" d="M156.92 327.94v-.42l-51.82-29.91h-.71v.41l51.81 29.92h.72zM156.92 324.16l-45.98-26.55h-1.43l47.41 27.37v-.82zM156.92 320.79l-40.15-23.18h-1.42l41.57 24v-.82zM156.92 317.42l-34.31-19.81h-1.42l35.73 20.63v-.82zM156.92 314.05l-28.47-16.44h-1.43l29.9 17.26v-.82zM156.92 310.68l-22.64-13.07h-1.42l24.06 13.89v-.82zM156.92 307.31l-16.8-9.7h-1.43l18.23 10.52v-.82zM156.92 303.94l-10.96-6.33h-1.43l12.39 7.15v-.82zM156.92 300.57l-5.13-2.96h-1.42l6.55 3.78v-.82zM156.92 297.61h-.72l.72.41v-.41z"/></g><g clip-path="url(#clip-path-88)"><path class="cls-9" d="M209.44 327.94v-.42l-51.81-29.91h-.71v.41l51.81 29.92h.71zM209.44 324.16l-45.98-26.55h-1.42l47.4 27.37v-.82zM209.44 320.79l-40.14-23.18h-1.42l41.56 24v-.82zM209.44 317.42l-34.3-19.81h-1.43l35.73 20.63v-.82zM209.44 314.05l-28.47-16.44h-1.42l29.89 17.26v-.82zM209.44 310.68l-22.63-13.07h-1.42l24.05 13.89v-.82zM209.44 307.31l-16.8-9.7h-1.42l18.22 10.52v-.82zM209.44 303.94l-10.96-6.33h-1.42l12.38 7.15v-.82zM209.44 300.57l-5.12-2.96h-1.43l6.55 3.78v-.82zM209.44 297.61h-.71l.71.41v-.41z"/></g><g clip-path="url(#clip-path-89)"><path class="cls-9" d="M261.97 327.94v-.42l-51.81-29.91h-.72v.41l51.82 29.92h.71zM261.97 324.16l-45.98-26.55h-1.42l47.4 27.37v-.82zM261.97 320.79l-40.14-23.18h-1.43l41.57 24v-.82zM261.97 317.42l-34.31-19.81h-1.42l35.73 20.63v-.82zM261.97 314.05l-28.47-16.44h-1.42l29.89 17.26v-.82zM261.97 310.68l-22.63-13.07h-1.43l24.06 13.89v-.82zM261.97 307.31l-16.8-9.7h-1.42l18.22 10.52v-.82zM261.97 303.94l-10.96-6.33h-1.42l12.38 7.15v-.82zM261.97 300.57l-5.13-2.96h-1.42l6.55 3.78v-.82zM261.97 297.61h-.71l.71.41v-.41z"/></g><g clip-path="url(#clip-path-90)"><path class="cls-9" d="M314.5 327.94v-.42l-51.82-29.91h-.71v.41l51.81 29.92h.72zM314.5 324.16l-45.98-26.55h-1.43l47.41 27.37v-.82zM314.5 320.79l-40.15-23.18h-1.42l41.57 24v-.82zM314.5 317.42l-34.31-19.81h-1.42l35.73 20.63v-.82zM314.5 314.05l-28.48-16.44h-1.42l29.9 17.26v-.82zM314.5 310.68l-22.64-13.07h-1.42l24.06 13.89v-.82zM314.5 307.31l-16.8-9.7h-1.43l18.23 10.52v-.82zM314.5 303.94l-10.97-6.33h-1.42l12.39 7.15v-.82zM314.5 300.57l-5.13-2.96h-1.42l6.55 3.78v-.82zM314.5 297.61h-.72l.72.41v-.41z"/></g><g clip-path="url(#clip-path-91)"><path class="cls-9" d="M367.02 327.94v-.42l-51.81-29.91h-.71v.41l51.81 29.92h.71zM367.02 324.16l-45.98-26.55h-1.42l47.4 27.37v-.82zM367.02 320.79l-40.14-23.18h-1.43l41.57 24v-.82zM367.02 317.42l-34.31-19.81h-1.42l35.73 20.63v-.82zM367.02 314.05l-28.47-16.44h-1.42l29.89 17.26v-.82zM367.02 310.68l-22.63-13.07h-1.43l24.06 13.89v-.82zM367.02 307.31l-16.8-9.7h-1.42l18.22 10.52v-.82zM367.02 303.94l-10.96-6.33h-1.42l12.38 7.15v-.82zM367.02 300.57l-5.12-2.96h-1.43l6.55 3.78v-.82zM367.02 297.61h-.71l.71.41v-.41z"/></g><g clip-path="url(#clip-path-92)"><path class="cls-9" d="M419.55 327.94v-.42l-51.82-29.91h-.71v.41l51.81 29.92h.72zM419.55 324.16l-45.98-26.55h-1.43l47.41 27.37v-.82zM419.55 320.79l-40.15-23.18h-1.42l41.57 24v-.82zM419.55 317.42l-34.31-19.81h-1.42l35.73 20.63v-.82zM419.55 314.05l-28.47-16.44h-1.43l29.9 17.26v-.82zM419.55 310.68l-22.64-13.07h-1.42l24.06 13.89v-.82zM419.55 307.31l-16.8-9.7h-1.42l18.22 10.52v-.82zM419.55 303.94l-10.96-6.33h-1.43l12.39 7.15v-.82zM419.55 300.57l-5.13-2.96H413l6.55 3.78v-.82zM419.55 297.61h-.72l.72.41v-.41z"/></g><g clip-path="url(#clip-path-93)"><path class="cls-9" d="M472.07 327.94v-.42l-51.81-29.91h-.71v.41l51.81 29.92h.71zM472.07 324.16l-45.97-26.55h-1.43l47.4 27.37v-.82zM472.07 320.79l-40.14-23.18h-1.42l41.56 24v-.82zM472.07 317.42l-34.3-19.81h-1.42l35.72 20.63v-.82zM472.07 314.05l-28.47-16.44h-1.42l29.89 17.26v-.82zM472.07 310.68l-22.63-13.07h-1.42l24.05 13.89v-.82zM472.07 307.31l-16.8-9.7h-1.42l18.22 10.52v-.82zM472.07 303.94l-10.96-6.33h-1.42l12.38 7.15v-.82zM472.07 300.57l-5.12-2.96h-1.43l6.55 3.78v-.82zM472.07 297.61h-.71l.71.41v-.41z"/></g><g clip-path="url(#clip-path-94)"><path class="cls-9" d="M524.6 327.94v-.42l-51.81-29.91h-.72v.41l51.82 29.92h.71zM524.6 324.16l-45.98-26.55h-1.42l47.4 27.37v-.82zM524.6 320.79l-40.14-23.18h-1.43l41.57 24v-.82zM524.6 317.42l-34.31-19.81h-1.42l35.73 20.63v-.82zM524.6 314.05l-28.47-16.44h-1.42l29.89 17.26v-.82z"/></g></g></g></svg>